<?xml version="1.0" encoding="UTF-8"?>
<svg id="_레이어_1" data-name="레이어 1" xmlns="http://www.w3.org/2000/svg" viewBox="0 0 382.68 382.68">
  <defs>
    <style>
      .cls-1 {
        fill: #231815;
      }

      .cls-2 {
        fill: #040000;
      }
    </style>
  </defs>
  <path class="cls-2" d="M191.34,334.07c-38.12,0-73.96-14.85-100.92-41.81-26.96-26.96-41.81-62.8-41.81-100.92s14.85-73.96,41.81-100.92c26.96-26.96,62.8-41.81,100.92-41.81s73.96,14.85,100.92,41.81c26.96,26.96,41.81,62.8,41.81,100.92s-14.85,73.96-41.81,100.92c-26.96,26.96-62.8,41.81-100.92,41.81ZM191.34,50.61c-37.58,0-72.92,14.64-99.51,41.22-26.58,26.58-41.22,61.92-41.22,99.51s14.64,72.92,41.22,99.51c26.58,26.58,61.92,41.22,99.51,41.22s72.92-14.64,99.51-41.22c26.58-26.58,41.22-61.92,41.22-99.51s-14.64-72.92-41.22-99.51c-26.58-26.58-61.92-41.22-99.51-41.22ZM196.77,320.81v-63.93s1.02.02,1.02.02c17.39.35,34.1,2.06,49.68,5.1l1.14.22-.39,1.09c-2.69,7.56-5.84,14.66-9.35,21.1-11.19,20.48-25.72,33.32-40.92,36.17l-1.18.22ZM198.77,258.93v59.45c14.17-3.17,27.75-15.52,38.35-34.92,3.29-6.03,6.25-12.66,8.82-19.71-14.83-2.82-30.69-4.44-47.17-4.82ZM185.91,320.81l-1.18-.22c-15.2-2.84-29.73-15.69-40.92-36.17-3.5-6.4-6.64-13.5-9.35-21.1l-.39-1.09,1.14-.22c15.58-3.04,32.29-4.76,49.68-5.1l1.02-.02v63.93ZM136.74,263.75c2.58,7.09,5.55,13.72,8.82,19.71,10.6,19.4,24.18,31.75,38.35,34.92v-59.45c-16.48.38-32.34,2-47.17,4.82ZM153.82,315.76l-3.87-1.3c-18.86-6.33-36.3-17.15-50.43-31.3-2.15-2.15-4.27-4.42-6.31-6.77l-.88-1.01,1.21-.56c8.45-3.88,18.21-7.25,29.01-10l.89-.23.3.87c3.04,8.74,6.59,16.85,10.56,24.11,4.94,9.06,10.55,16.87,16.68,23.23l2.84,2.94ZM95.61,276.09c1.73,1.95,3.52,3.85,5.32,5.65,12.97,12.98,28.76,23.12,45.87,29.48-5.19-5.89-9.97-12.83-14.25-20.68-3.89-7.12-7.39-15.03-10.39-23.55-9.81,2.54-18.74,5.6-26.56,9.09ZM228.88,315.76l2.82-2.94c6.13-6.39,11.75-14.21,16.68-23.23,3.97-7.26,7.53-15.37,10.56-24.11l.3-.87.89.23c10.8,2.75,20.56,6.11,29.01,10l1.21.56-.87,1.01c-1.96,2.26-4.08,4.54-6.31,6.77-14.15,14.15-31.58,24.97-50.43,31.3l-3.86,1.3ZM260.52,267c-3,8.51-6.5,16.43-10.39,23.55-4.28,7.83-9.06,14.77-14.26,20.68,17.11-6.36,32.9-16.5,45.88-29.48,1.86-1.86,3.65-3.76,5.33-5.65-7.82-3.5-16.75-6.55-26.56-9.09ZM85.54,266.66l-.49-.7c-14.11-20.05-22.21-43.62-23.42-68.15l-.05-1.05h50.44l.02.98c.48,19.47,3.15,38.15,7.92,55.54l.27.98-.98.25c-12.33,3.17-23.42,7.13-32.94,11.77l-.77.37ZM63.69,198.77c1.35,23.49,9.12,46.04,22.51,65.35,9.22-4.42,19.83-8.21,31.57-11.28-4.57-16.97-7.16-35.15-7.7-54.07h-46.38ZM297.14,266.66l-.76-.37c-9.58-4.65-20.67-8.61-32.94-11.77l-.98-.25.27-.98c4.77-17.42,7.44-36.11,7.92-55.54l.02-.98h50.44l-.05,1.05c-1.21,24.53-9.31,48.09-23.42,68.15l-.49.7ZM264.91,252.83c11.69,3.06,22.3,6.85,31.57,11.28,13.39-19.3,21.16-41.86,22.51-65.35h-46.38c-.54,18.88-3.13,37.06-7.7,54.07ZM130.8,251.85l-.25-.9c-4.58-16.56-7.15-34.44-7.64-53.15l-.03-1.03h63.02v49.25l-.98.02c-18.58.37-36.48,2.26-53.21,5.63l-.91.18ZM124.94,198.77c.54,17.84,2.99,34.91,7.29,50.75,16.29-3.22,33.66-5.05,51.67-5.46v-45.29h-58.97ZM251.86,251.84l-.91-.18c-16.79-3.38-34.69-5.27-53.2-5.63l-.98-.02v-49.25h63.01s-.03,1.02-.03,1.02c-.49,18.71-3.06,36.59-7.64,53.15l-.25.9ZM198.77,244.05c17.94.4,35.31,2.23,51.66,5.46,4.3-15.85,6.75-32.92,7.29-50.75h-58.95v45.29ZM321.1,185.9h-50.44l-.02-.98c-.48-19.47-3.15-38.15-7.92-55.54l-.27-.98.98-.25c12.33-3.17,23.42-7.13,32.94-11.77l.77-.37.49.7c14.11,20.05,22.21,43.61,23.42,68.15l.05,1.05ZM272.61,183.9h46.39c-1.35-23.49-9.12-46.05-22.51-65.35-9.22,4.42-19.83,8.21-31.57,11.28,4.57,16.97,7.16,35.15,7.7,54.07ZM122.9,185.9l.03-1.03c.49-18.71,3.06-36.59,7.64-53.15l.25-.9.91.18c16.79,3.38,34.69,5.27,53.2,5.63l.98.02v49.25h-63.01ZM132.25,133.15c-4.3,15.85-6.75,32.91-7.29,50.75h58.95v-45.29c-17.95-.4-35.32-2.23-51.66-5.46ZM259.79,185.9h-63.02v-48.03l-.6-1.21,1.58-.03c18.52-.36,36.42-2.25,53.22-5.63l.91-.18.25.9c4.58,16.57,7.15,34.45,7.64,53.15l.03,1.03ZM198.77,183.9h58.97c-.54-17.83-2.99-34.89-7.29-50.75-16.35,3.23-33.72,5.06-51.67,5.46v45.29ZM112.02,185.9h-50.44l.05-1.05c1.21-24.52,9.31-48.08,23.42-68.15l.49-.7.77.37c9.5,4.63,20.58,8.59,32.94,11.77l.98.25-.27.98c-4.77,17.44-7.44,36.13-7.92,55.54l-.02.98ZM63.69,183.9h46.38c.54-18.87,3.13-37.04,7.7-54.07-11.77-3.08-22.38-6.87-31.57-11.28-13.39,19.32-21.16,41.87-22.51,65.35ZM196.77,125.78v-63.91s1.18.22,1.18.22c15.2,2.84,29.73,15.68,40.92,36.15,3.51,6.44,6.65,13.53,9.35,21.1l.39,1.09-1.14.22c-15.58,3.04-32.29,4.76-49.68,5.1l-1.02.02ZM198.77,64.3v59.44c16.48-.38,32.34-2,47.17-4.82-2.57-7.05-5.54-13.68-8.82-19.71-10.6-19.39-24.18-31.73-38.35-34.9ZM185.63,125.78h-.74c-17.45-.36-34.16-2.07-49.68-5.11l-1.14-.22.39-1.09c2.71-7.6,5.85-14.7,9.35-21.1,11.19-20.48,25.72-33.32,40.92-36.17l1.18-.22v63.05l-.29.86ZM136.74,118.93c14.78,2.81,30.63,4.43,47.17,4.81v-59.44c-14.17,3.17-27.75,15.51-38.35,34.92-3.28,6-6.24,12.62-8.82,19.71ZM259.23,118.07l-.3-.87c-3.03-8.74-6.59-16.85-10.56-24.11-4.92-9.02-10.53-16.84-16.68-23.23l-2.83-2.94,3.87,1.3c18.87,6.33,36.3,17.16,50.42,31.3,2.15,2.15,4.27,4.42,6.31,6.77l.88,1.01-1.21.56c-8.44,3.88-18.19,7.25-29,10l-.89.23ZM235.87,71.45c5.2,5.92,9.99,12.86,14.25,20.68,3.89,7.12,7.39,15.04,10.39,23.55,9.82-2.54,18.74-5.6,26.55-9.09-1.73-1.95-3.52-3.85-5.32-5.65-12.95-12.98-28.74-23.12-45.87-29.48ZM123.45,118.07l-.89-.23c-10.8-2.75-20.56-6.11-29.01-10l-1.21-.56.87-1.01c2.04-2.36,4.17-4.64,6.31-6.77,14.15-14.15,31.58-24.97,50.43-31.3l3.86-1.3-2.82,2.94c-6.13,6.39-11.74,14.21-16.68,23.23-3.97,7.26-7.53,15.38-10.56,24.11l-.3.87ZM95.6,106.59c7.82,3.49,16.75,6.55,26.56,9.09,3-8.51,6.5-16.43,10.39-23.55,4.28-7.83,9.07-14.77,14.26-20.68-17.11,6.36-32.9,16.5-45.88,29.48-1.8,1.79-3.59,3.69-5.33,5.65Z"/>
  <g>
    <path class="cls-1" d="M77.01,72.89c-1.72,2.85-5.27,7.99-8.34,11.78-1.19-1.27-6.08-6.15-7.33-7.31l1.87-1.87c.88.96,3.67,3.78,5.5,5.56,2.57-3.16,5.27-7.24,6.68-9.78l1.62,1.62ZM82.05,63.34l1.73,1.72c-.52.48-2.07,2-2.93,2.85,1.91,1.91,3.64,3.59,4.02,3.88l-1.83,1.83c-.73-.89-9.37-9.51-10.29-10.25l1.83-1.83c.36.44,2.46,2.57,4.69,4.8.83-.88,2.32-2.46,2.78-3ZM83.24,80.89c2.87-.09,6.65-2.13,8.85-4.13l.42,2.74c-3.01,1.77-6.09,3.19-9.14,3.38-.1,3.01-1.28,6.16-3.19,9.28l-2.91-.41c2.7-3.08,4.17-6.8,3.81-9.57-2.78,2.79-5.38,5.39-5.88,5.93l-1.46-1.45c1.21-1.08,12.46-12.37,13.53-13.58l1.46,1.45c-.52.48-2.95,2.91-5.62,5.6l.12.75ZM74.42,80.61c1.02-.9,5.4-5.29,6.29-6.31l1.44,1.43c-1,.92-5.38,5.31-6.29,6.31l-1.44-1.43Z"/>
    <path class="cls-1" d="M99.58,61.62c-2.93-.64-5.38-1.58-7.68-3.12.68,2.86.63,6.02-.5,9.94l-2.77-.68c2.47-5.03,1.15-10.14-1.42-14.26l1.97-1.38c.42.71.81,1.41,1.15,2.1,2.71,3.05,6.61,4.66,9.95,4.76l-.7,2.64ZM113.25,60.22l1.42,2.02c-1.19.76-13.05,9.08-15.09,10.58-.49-.8-3.68-5.35-4.24-6.04l2.14-1.5c.31.5,1.74,2.58,2.88,4.16,3.94-2.73,11.96-8.5,12.89-9.22ZM97.14,56.65l-1.37-1.95c.49-.27,4.48-3.03,6.2-4.27-2.06-2.94-3.92-5.54-4.31-5.99l2.17-1.52c.7,1.2,9.81,14.2,10.7,15.26l-2.17,1.52c-.34-.59-2.66-3.95-5.08-7.39-1.75,1.19-5.72,3.98-6.14,4.35Z"/>
    <path class="cls-1" d="M121.54,40.65c4.11-1.69,7.74-5.27,8.09-8.33-3.96,1.51-7.68,2.96-8.5,3.3l-.85-2.23c1.8-.56,17.13-6.39,18.85-7.17l.85,2.23c-.75.25-3.95,1.44-7.52,2.8,0,.38-.09.76-.17,1.13,2.67.9,6.5,1.11,10.51-.07l-.48,2.79c-3.76.61-7.71.57-10.74-.44-1.52,3.38-4.68,6.06-7.74,7.85l-2.31-1.86ZM146.88,38.8c-1.09.35-5.8,2.11-10.77,4.01.86,2.44,2.95,7.91,3.39,8.84l-2.61.99c-.28-.99-2.37-6.46-3.34-8.86-4.97,1.89-9.63,3.7-10.68,4.16l-.86-2.25c2.34-.8,21.74-8.18,24.02-9.14l.86,2.25Z"/>
    <path class="cls-1" d="M151.85,35.8l-2.2-2.01c5.39-2.03,8.82-6.59,8.68-11.86l2.52-.47c1.72,4.71,6.57,7.78,12.28,7.73l-1.27,2.66c-5.34-.89-9.04-2.92-11.5-6.29-1.04,4.2-3.74,7.49-8.5,10.24ZM175.59,37.47l.45,2.4c-2.45.37-22.86,4.18-25.27,4.72l-.45-2.4c1.13-.18,6.08-1.08,11.31-2.05-.38-2.35-1.23-6.77-1.45-7.6l2.69-.5c.1.85.9,5.28,1.39,7.61,5.23-.98,10.2-1.94,11.32-2.18Z"/>
    <path class="cls-1" d="M204.18,37.39v2.41c-2.47-.09-23.22-.07-25.69.02v-2.41c1.14.03,6.17.06,11.49.05.03-1.41.03-3.82,0-5.47-3.53,0-6.82.03-7.99.09.09-1.47.08-6,0-7.47,2.12.09,11.58.11,16.23.05v-3.09c-4.68-.06-14.14-.02-16.32.07v-2.29c2.67.12,16.2.11,18.87-.01-.09,1.47-.08,5.94,0,7.41-2.12-.06-11.58-.08-16.23-.02v3.17c4.64.06,14.61.02,16.67-.04v2.21c-1.14-.06-4.73-.09-8.55-.08-.03,1.65-.03,4.06,0,5.47,5.35,0,10.38-.04,11.52-.07Z"/>
    <path class="cls-1" d="M219.13,34.01l-1.09-2.55c4.25-.51,7.66-3.6,9.04-6.89-2.54-.64-4.88-1.22-5.54-1.36l.55-2.2c1.46.46,11.64,3.01,13.15,3.3l-.55,2.2c-.62-.19-2.82-.74-5.24-1.34-.23.55-.51,1.08-.8,1.62.28,2.65,2.03,5.69,4.04,7.44l-2.21,1.45c-1.53-2.02-2.84-4.17-3.57-6.56-1.97,2.17-4.69,3.83-7.78,4.9ZM239.89,40.19c-.27.72-2.2,8.39-2.3,9.18-1.3-.48-16.37-4.26-17.74-4.45.28-.75,2.2-8.42,2.3-9.18l2.51.63c-.09.22-.32,1.13-.61,2.3,2.41.66,10.31,2.65,12.78,3.2.29-1.17.52-2.08.55-2.32l2.51.63ZM235.65,46.59c.2-.8.47-1.76.69-2.74-2.42-.64-10.35-2.62-12.78-3.2-.27.96-.49,1.94-.69,2.74,3.27.85,9.46,2.4,12.78,3.2ZM243.77,24.73c-.39,1.08-3.33,12.81-3.51,13.98l-2.51-.63c.18-.47.81-2.86,1.48-5.54-1.99-.53-6.5-1.63-7.06-1.71l.54-2.17c.53.19,5.03,1.35,7.03,1.82.75-2.99,1.44-5.85,1.51-6.38l2.51.63Z"/>
    <path class="cls-1" d="M268.94,48.72l-.97,2.18c-2.21-1.11-21.17-9.57-23.47-10.47l.97-2.18c1.02.52,5.64,2.65,10.56,4.84.68-1.53,1.72-3.93,1.95-4.51l2.34,1.04c-.28.55-1.37,2.93-2.05,4.46,4.91,2.19,9.61,4.22,10.68,4.64ZM246.58,44c1.12.73,15.47,7.03,17.13,7.71-.57,1.06-2.81,6.09-3.22,7.22l-2.47-1.1c.53-.89,2.17-4.5,2.4-5.17-.94-.42-13.81-6-14.88-6.35l1.03-2.31ZM249.45,36.62l-.35-2.89c3.82,1.32,9.21,1.79,11.63-1.31l2.34,1.04c-.62,3.71,3.37,7.33,6.91,9.26l-2.36,1.62c-2.85-2.14-6.01-5.22-6.77-8.85-3.3,2.07-7.82,1.79-11.39,1.13Z"/>
    <path class="cls-1" d="M281.68,61.2c-1.99,2.91-5.51,3.32-8.45,1.31-2.94-2.01-3.88-5.47-1.89-8.38,1.91-2.79,5.48-3.16,8.41-1.15,2.93,2.01,3.83,5.44,1.92,8.23ZM279.57,59.76c1.2-1.75.63-3.73-1.09-4.91s-3.83-1.02-5.02.73c-1.2,1.75-.57,3.74,1.15,4.92,1.82,1.25,3.76,1.01,4.96-.74ZM275.59,45.32c1.07.88,11.71,8.13,12.88,8.82l-1.31,1.92c-1.08-.81-11.71-8.09-12.88-8.82l1.31-1.92ZM286.95,50.63c-.96-.73-6.39-4.45-7.4-5.07l1.31-1.92c.92.74,6.36,4.46,7.4,5.07l-1.31,1.92ZM292.81,66.44c-.54-.41-2.27-1.63-3.27-2.31-3.11,4.54-6,8.82-6.4,9.51l-2.26-1.55c1.06-1.34,13.45-19.44,14.32-20.91l2.25,1.54c-.5.62-3.49,4.95-6.62,9.51,1.04.67,2.81,1.82,3.38,2.14l-1.41,2.06Z"/>
    <path class="cls-1" d="M290.86,71.13c7.16,3.1,13.62,1.35,17.38-1.72-1.12-1.17-5.9-5.82-7.04-6.76l1.7-1.75c.99,1.09,7.82,7.73,9.05,8.8-5.98,5.3-12.49,6.98-21.57,4.63l.48-3.19ZM320.16,73.44c-1.27,1.14-16.57,16.87-17.67,18.18l-1.96-1.91c1.27-1.14,16.57-16.87,17.67-18.18l1.96,1.91Z"/>
    <path class="cls-1" d="M343.06,126.45v.03c.46,1.04-.03,2.25-1.07,2.7h0c-1.04.44-2.25-.04-2.7-1.09v-.03c-.46-1.04.03-2.25,1.07-2.7h0c1.04-.44,2.25.04,2.7,1.09Z"/>
    <path class="cls-1" d="M350.68,189.7c-4.59-.47-7.19-3.15-7.41-6.99-.3-5.2,4.17-7.9,10.63-8.27,6.61-.38,11.17,2.12,11.46,7.2.21,3.67-2.48,6.59-6.75,7.55l-.16-2.85c2.42-.49,4.46-1.94,4.3-4.64-.18-3.08-3.25-4.7-8.68-4.39-5.26.3-8.39,2.16-8.2,5.42.16,2.7,2.08,3.94,4.66,4.18l.16,2.79Z"/>
    <path class="cls-1" d="M353.83,208.94c-6.4-.37-10.88-3.29-10.57-8.6.31-5.31,5.1-7.69,11.5-7.31,6.43.38,10.85,3.28,10.54,8.6-.31,5.31-5.04,7.69-11.47,7.31ZM354.59,195.9c-5.37-.31-8.55,1.09-8.75,4.59-.21,3.52,2.79,5.26,8.16,5.57,5.37.31,8.52-1.06,8.72-4.59.2-3.49-2.76-5.26-8.13-5.57Z"/>
    <path class="cls-1" d="M341.05,220.96l19.12-3.52-17.92-3.2.49-2.75,20.99,3.74-.73,4.11-19.06,3.53,17.86,3.19-.49,2.75-20.99-3.74.73-4.11Z"/>
    <path class="cls-1" d="M336.57,238.24l19.4-1.25-17.42-5.28.81-2.67,20.4,6.18-1.21,4-19.34,1.27,17.36,5.26-.81,2.67-20.4-6.18,1.21-4Z"/>
    <path class="cls-1" d="M353.34,254.89l-5.06,11.65-2.43-1.05,3.95-9.09-5.82-2.53-3.71,8.55-2.43-1.05,3.71-8.55-6.45-2.8-3.95,9.09-2.43-1.06,5.06-11.65,19.55,8.49Z"/>
    <path class="cls-1" d="M325.72,277.01c-3.59-2.91-4.3-6.57-2.38-9.91,2.59-4.51,7.81-4.33,13.42-1.11,5.74,3.3,8.19,7.89,5.65,12.3-1.83,3.19-5.68,4.16-9.78,2.62l1.42-2.47c2.29.91,4.79.82,6.14-1.53,1.54-2.68-.14-5.71-4.86-8.42-4.56-2.62-8.21-2.78-9.83.05-1.35,2.35-.42,4.44,1.61,6.05l-1.39,2.42Z"/>
    <path class="cls-1" d="M330.18,291.55l3.8-5.16,2.13,1.57-9.25,12.58-2.13-1.57,3.8-5.16-15.04-11.06,1.65-2.25,15.04,11.06Z"/>
    <path class="cls-1" d="M323.4,304.64l-9.21,9.94-1.94-1.8,3.66-3.95-11.75-10.89-3.66,3.95-1.94-1.8,9.21-9.94,1.94,1.8-3.66,3.95,11.75,10.89,3.66-3.95,1.94,1.8Z"/>
    <path class="cls-1" d="M288.86,308.72l17.06,9.33-11.89-13.78,2.11-1.83,13.93,16.14-3.16,2.73-17.02-9.28,11.86,13.74-2.12,1.83-13.93-16.14,3.16-2.73Z"/>
    <path class="cls-1" d="M286.8,323.92c-2.94-4.36-6.07-6.16-9.02-4.17-2.12,1.43-3.5,3.7-1.03,7.36l.38.56,4.07-2.75,1.48,2.19-6.19,4.17-6.18-9.17,1.75-1.18,1.59,2.15c-.17-2.51.65-4.13,2.78-5.56,4.56-3.07,9.14-.59,12.76,4.77,3.7,5.49,3.86,10.66-.63,13.69-3.29,2.22-6.99,1.52-9.96-1.68l2.39-1.61c1.67,1.85,3.72,2.78,6.25,1.07,2.8-1.89,2.61-5.34-.44-9.85Z"/>
    <path class="cls-1" d="M251.73,351.59l6.02-2.2.91,2.48-14.66,5.37-.91-2.48,6.02-2.2-6.42-17.53,2.62-.96,6.42,17.53Z"/>
    <path class="cls-1" d="M222.24,351.82c-1.51-6.23-.04-11.37,5.13-12.63,5.17-1.26,8.84,2.63,10.36,8.86,1.52,6.26.04,11.34-5.14,12.6-5.17,1.26-8.83-2.57-10.35-8.83ZM234.93,348.73c-1.27-5.23-3.54-7.85-6.95-7.03-3.43.83-4.21,4.2-2.94,9.43,1.27,5.23,3.51,7.83,6.94,7,3.4-.83,4.22-4.17,2.95-9.4Z"/>
    <path class="cls-1" d="M182.61,343.89h3s1.44,4.56,1.44,4.56h8.14s1.41-4.55,1.41-4.55h3s-7.02,21.31-7.02,21.31h-3s-6.98-21.33-6.98-21.33ZM194.36,351.07h-6.5s3.23,10.41,3.23,10.41l3.27-10.41Z"/>
    <path class="cls-1" d="M157.83,356.56c-.88,3.57-4.48,4.92-8.2,4.01-3.2-.79-6-3.3-5.45-7.52l2.69.66c-.3,2.56,1.64,3.92,3.52,4.38,1.88.46,4.09,0,4.62-2.13.45-1.83-.67-3.04-2.24-3.82l-1.94-.96c-3.16-1.57-5.71-3.74-4.74-7.68.95-3.85,4.52-5.43,8.52-4.44,4.2,1.04,6.58,4.5,5.8,8.67l-2.68-.66c.4-2.84-1.16-4.86-3.82-5.52-2.06-.51-4.44.06-5.02,2.43-.53,2.14.86,3.51,2.99,4.58l2.12,1.1c2.56,1.27,4.65,3.63,3.84,6.91Z"/>
    <path class="cls-1" d="M133.06,352.39l6.01,2.23-.92,2.48-14.64-5.44.92-2.48,6.01,2.23,6.5-17.5,2.62.97-6.5,17.5Z"/>
    <path class="cls-1" d="M117.95,335.29c.46.2.93.44,1.4.68l2.15,1.09,4.06-7.99,2.49,1.26-9.65,19-4.64-2.36c-4.14-2.1-6.89-4.62-4.59-9.15,1.5-2.96,3.61-3.74,6.02-3.34l.28-10.54,2.83,1.44-.35,9.91ZM117.11,345.71l3.19-6.29-2.44-1.24c-2.52-1.28-4.6-2.04-6.09.9-1.49,2.94.38,4.12,2.9,5.39l2.44,1.24Z"/>
    <path class="cls-1" d="M99.54,313.48l2.49,1.67-1.34,4.59,6.77,4.53,3.71-3,2.49,1.67-17.68,13.82-2.49-1.67,6.05-21.61ZM105.32,325.98l-5.4-3.62-3.1,10.45,8.5-6.83Z"/>
    <path class="cls-1" d="M90.25,305.63l-6.61,18.28,11.8-13.85,2.12,1.81-13.83,16.22-3.18-2.71,6.57-18.23-11.77,13.81-2.12-1.81,13.83-16.22,3.18,2.71Z"/>
    <path class="cls-1" d="M74.91,305.93c3.86-3.58,5.15-6.94,2.73-9.55-1.74-1.88-4.2-2.88-7.43.12l-.5.46,3.34,3.6-1.94,1.8-5.08-5.48,8.11-7.52,1.44,1.55-1.88,1.91c2.46-.55,4.18.01,5.92,1.89,3.74,4.03,1.99,8.94-2.75,13.34-4.85,4.5-9.94,5.45-13.62,1.48-2.7-2.91-2.58-6.67.13-10.11l1.96,2.11c-1.57,1.94-2.17,4.1-.09,6.34,2.3,2.48,5.68,1.75,9.67-1.95Z"/>
    <path class="cls-1" d="M54.44,298.78l-7.49-10.26,2.14-1.56,5.84,8,5.13-3.75-5.5-7.53,2.14-1.56,5.5,7.53,5.68-4.14-5.84-8,2.14-1.56,7.49,10.26-17.22,12.57Z"/>
    <path class="cls-1" d="M47.5,242.96l1.17,2.76-3.64,3.1,3.17,7.5,4.75-.47,1.17,2.76-22.36,1.84-1.16-2.76,16.92-14.74ZM45.47,256.59l-2.53-5.99-8.33,7.03,10.86-1.04Z"/>
    <path class="cls-1" d="M25.24,242.9c-1.69-5.82-.65-11.2,7.17-13.47,7.79-2.26,11.61,1.71,13.3,7.53l1.02,3.5-20.48,5.94-1.02-3.5ZM27.81,242.25l.21.73,15.39-4.47-.21-.73c-1.11-3.81-3.04-7.63-9.99-5.61-6.97,2.02-6.51,6.27-5.4,10.08Z"/>
    <path class="cls-1" d="M20.39,223.22c-1-5.97.65-11.2,8.69-12.55,8-1.34,11.33,3.05,12.33,9.02l.6,3.6-21.02,3.53-.6-3.59ZM23.01,222.87l.13.75,15.8-2.65-.12-.75c-.66-3.91-2.14-7.93-9.27-6.73-7.16,1.2-7.19,5.47-6.53,9.38Z"/>
    <path class="cls-1" d="M29.97,199.16c.06.5.08,1.03.11,1.56l.12,2.41,8.96-.46.14,2.79-21.29,1.1-.27-5.2c-.24-4.64.58-8.27,5.66-8.54,3.32-.17,5.04,1.27,5.89,3.55l9.28-5.01.16,3.17-8.77,4.63ZM20.52,203.62l7.05-.36-.14-2.73c-.15-2.82-.52-5.01-3.81-4.84-3.29.17-3.38,2.38-3.23,5.2l.14,2.73Z"/>
    <path class="cls-1" d="M17.4,186.84l.77-12.68,2.64.16-.6,9.89,6.34.39.57-9.31,2.64.16-.57,9.31,7.01.43.6-9.89,2.64.16-.77,12.68-21.28-1.3Z"/>
    <path class="cls-1" d="M24.17,169.61c-3.62-.62-5.22-4.12-4.58-7.89.56-3.24,2.86-6.22,7.11-5.96l-.47,2.72c-2.58-.12-3.79,1.91-4.12,3.83-.33,1.91.28,4.08,2.46,4.45,1.86.32,2.99-.89,3.65-2.5l.82-2.01c1.34-3.26,3.32-5.96,7.32-5.27,3.91.67,5.73,4.12,5.04,8.17-.73,4.26-4.02,6.88-8.23,6.4l.47-2.72c2.86.19,4.76-1.51,5.23-4.2.36-2.09-.37-4.42-2.78-4.83-2.17-.37-3.44,1.11-4.36,3.31l-.94,2.19c-1.08,2.65-3.29,4.89-6.62,4.32Z"/>
    <path class="cls-1" d="M27.79,150.42c-3.53-1.04-4.71-4.7-3.63-8.37.93-3.16,3.57-5.85,7.76-5.1l-.78,2.65c-2.55-.42-3.99,1.46-4.54,3.32-.55,1.86-.19,4.08,1.92,4.71,1.8.53,3.07-.53,3.92-2.06l1.05-1.9c1.71-3.08,3.99-5.54,7.89-4.39,3.81,1.12,5.22,4.76,4.05,8.71-1.22,4.15-4.79,6.37-8.92,5.4l.78-2.65c2.82.53,4.91-.94,5.68-3.57.6-2.03.14-4.43-2.2-5.12-2.12-.62-3.55.7-4.71,2.78l-1.19,2.07c-1.38,2.5-3.84,4.48-7.08,3.52Z"/>
  </g>
</svg>