<?xml version="1.0" encoding="UTF-8"?>
<svg id="_레이어_1" data-name="레이어 1" xmlns="http://www.w3.org/2000/svg" viewBox="0 0 382.68 382.68">
  <defs>
    <style>
      .cls-1 {
        fill: #040000;
      }
    </style>
  </defs>
  <path class="cls-1" d="M191.33,219.94c-7.52,0-14.61-2.89-19.99-8.16-5.46-5.34-8.51-12.49-8.59-20.13-.08-7.64,2.82-14.85,8.16-20.31,5.34-5.46,12.49-8.51,20.13-8.59,7.64-.06,14.85,2.82,20.31,8.16,5.46,5.34,8.51,12.49,8.59,20.13.08,7.64-2.82,14.85-8.16,20.31-5.34,5.46-12.49,8.51-20.13,8.59-.1,0-.21,0-.32,0ZM191.35,163.24c-.1,0-.21,0-.31,0-7.5.08-14.53,3.08-19.78,8.44-5.25,5.36-8.1,12.45-8.02,19.95s3.08,14.53,8.44,19.78c5.36,5.25,12.46,8.07,19.95,8.02,7.5-.08,14.53-3.08,19.78-8.44,5.25-5.36,8.1-12.45,8.02-19.95-.08-7.5-3.08-14.53-8.44-19.78-5.29-5.18-12.25-8.02-19.64-8.02ZM190.58,217.3l-.3-.05c-3.06-.54-6-3.09-8.29-7.17-.71-1.28-1.36-2.69-1.92-4.21l-.1-.27.28-.06c3.12-.64,6.46-1.02,9.93-1.13h.26s.13,12.89.13,12.89ZM180.64,205.97c.53,1.39,1.12,2.69,1.78,3.86,2.14,3.82,4.84,6.24,7.65,6.86l-.12-11.78c-3.25.11-6.38.46-9.31,1.05ZM192.65,217.28l-.14-12.89h.25c3.48.03,6.83.34,9.96.92l.29.05-.09.27c-.53,1.53-1.14,2.96-1.83,4.25-2.2,4.13-5.09,6.74-8.14,7.35l-.3.06ZM193.02,204.89l.12,11.78c2.79-.68,5.44-3.16,7.5-7.02.63-1.19,1.2-2.5,1.7-3.9-2.94-.52-6.08-.81-9.33-.85ZM184.28,216.41l-.97-.31c-3.79-1.23-7.31-3.36-10.17-6.16-.44-.43-.87-.88-1.28-1.34l-.22-.25.3-.14c1.68-.8,3.63-1.49,5.79-2.06l.22-.06.08.22c.62,1.74,1.35,3.35,2.16,4.79,1,1.8,2.14,3.34,3.38,4.6l.72.73ZM172.46,208.51c.33.36.68.72,1.03,1.07,2.57,2.52,5.67,4.48,9.03,5.72-1-1.14-1.93-2.47-2.77-3.97-.79-1.4-1.5-2.97-2.12-4.65-1.91.52-3.65,1.13-5.18,1.83ZM198.94,216.25l.7-.74c1.21-1.29,2.31-2.86,3.28-4.67.78-1.46,1.47-3.09,2.06-4.84l.07-.22.22.05c2.17.53,4.13,1.18,5.83,1.94l.3.14-.22.25c-.39.46-.81.92-1.25,1.37-2.8,2.87-6.28,5.07-10.04,6.38l-.96.33ZM205.37,206.38c-.58,1.69-1.26,3.27-2.02,4.7-.8,1.51-1.71,2.86-2.69,4.02,3.33-1.31,6.39-3.34,8.91-5.91.35-.36.69-.72,1.01-1.09-1.54-.66-3.29-1.24-5.22-1.72ZM170.32,206.69l-.12-.17c-2.87-3.99-4.54-8.69-4.84-13.61l-.02-.26,10.19-.11v.24c.15,3.89.72,7.62,1.71,11.08l.07.24-.25.07c-2.46.66-4.66,1.47-6.55,2.42l-.19.1ZM165.88,193.15c.33,4.65,1.92,9.11,4.6,12.91,1.81-.89,3.9-1.66,6.21-2.29-.94-3.36-1.49-6.96-1.64-10.71l-9.17.1ZM212.68,206.24l-.19-.09c-1.92-.91-4.15-1.68-6.6-2.28l-.25-.06.06-.25c.92-3.49,1.41-7.23,1.46-11.11v-.24s10.19-.11,10.19-.11v.26c-.2,4.92-1.77,9.66-4.56,13.71l-.12.17ZM206.24,203.44c2.31.58,4.42,1.31,6.26,2.16,2.61-3.86,4.1-8.35,4.33-13l-9.17.1c-.07,3.75-.55,7.36-1.41,10.74ZM179.33,203.63l-.06-.22c-.95-3.3-1.51-6.88-1.64-10.63v-.26s12.7-.14,12.7-.14l.11,9.95h-.24c-3.73.12-7.31.54-10.62,1.24l-.23.05ZM178.13,193.02c.15,3.53.67,6.9,1.55,10.03,3.21-.67,6.65-1.06,10.24-1.19l-.1-8.96-11.69.12ZM203.61,203.37l-.23-.04c-3.36-.64-6.94-.98-10.64-1.01h-.25s-.11-9.95-.11-9.95l12.7-.14v.26c-.06,3.75-.54,7.33-1.42,10.66l-.06.22ZM192.99,201.82c3.56.04,7.01.37,10.26.97.81-3.15,1.26-6.53,1.33-10.06l-11.69.12.1,8.96ZM165.33,190.58v-.26c.2-4.91,1.77-9.65,4.56-13.7l.12-.18.19.09c1.91.9,4.13,1.67,6.6,2.28l.25.06-.06.25c-.92,3.49-1.41,7.23-1.46,11.11v.24s-10.19.11-10.19.11ZM170.17,177.07c-2.61,3.86-4.1,8.35-4.33,13l9.17-.1c.07-3.74.55-7.35,1.41-10.74-2.33-.59-4.43-1.31-6.26-2.16ZM177.59,190.45v-.26c.06-3.75.54-7.33,1.42-10.66l.06-.22.23.04c3.36.64,6.94.98,10.64,1.01h.25s.11,9.95.11,9.95l-12.7.14ZM179.43,179.89c-.81,3.15-1.26,6.53-1.34,10.06l11.69-.12-.1-8.96c-3.56-.04-7.01-.37-10.26-.97ZM192.36,190.29l-.11-9.95h.25c3.7-.12,7.27-.53,10.62-1.25l.23-.05.06.22c.95,3.31,1.5,6.88,1.64,10.63v.26s-12.7.14-12.7.14ZM192.76,180.83l.09,8.96,11.69-.12c-.15-3.53-.67-6.9-1.55-10.03-3.24.67-6.68,1.07-10.24,1.19ZM207.14,190.13v-.24c-.15-3.89-.72-7.62-1.71-11.08l-.07-.24.25-.07c2.46-.66,4.66-1.47,6.55-2.42l.19-.1.12.17c2.87,3.99,4.54,8.69,4.84,13.61l.02.26-10.19.11ZM205.98,178.92c.94,3.36,1.49,6.96,1.64,10.71l9.17-.1c-.33-4.65-1.92-9.11-4.6-12.91-1.81.89-3.9,1.66-6.21,2.29ZM190.16,178.29h-.26c-3.49-.03-6.84-.34-9.96-.91l-.29-.05.09-.27c.53-1.53,1.14-2.96,1.83-4.25,2.2-4.13,5.09-6.74,8.14-7.35l.3-.06.14,12.89ZM180.33,176.94c2.93.52,6.06.81,9.33.85l-.13-11.77c-2.79.68-5.44,3.16-7.5,7.03-.63,1.19-1.2,2.5-1.7,3.9ZM192.24,178.27l-.14-12.89.3.05c3.06.54,6,3.08,8.29,7.17.72,1.29,1.36,2.7,1.92,4.21l.1.27-.28.06c-3.11.64-6.46,1.02-9.93,1.13h-.25ZM192.6,165.98l.13,11.77c3.25-.11,6.38-.47,9.31-1.05-.52-1.38-1.12-2.68-1.78-3.86-2.14-3.82-4.85-6.24-7.65-6.86ZM177.64,176.89l-.22-.05c-2.17-.53-4.13-1.18-5.83-1.94l-.3-.14.21-.25c.4-.47.82-.94,1.25-1.37,2.81-2.87,6.28-5.07,10.04-6.38l.96-.33-.7.74c-1.21,1.29-2.31,2.86-3.28,4.67-.78,1.46-1.47,3.08-2.06,4.84l-.07.22ZM172.09,174.57c1.54.66,3.29,1.24,5.22,1.72.58-1.7,1.26-3.28,2.02-4.7.81-1.51,1.71-2.86,2.69-4.03-3.33,1.31-6.39,3.34-8.91,5.91-.34.35-.68.71-1.01,1.09ZM204.73,176.6l-.08-.22c-.62-1.74-1.35-3.35-2.16-4.79-1-1.79-2.14-3.34-3.38-4.6l-.71-.73.97.31c3.79,1.23,7.31,3.36,10.17,6.16.44.43.87.88,1.28,1.34l.22.25-.3.14c-1.68.8-3.63,1.49-5.79,2.06l-.22.06ZM200.16,167.38c1,1.14,1.93,2.47,2.77,3.97.79,1.41,1.5,2.97,2.12,4.65,1.91-.52,3.65-1.13,5.17-1.83-.33-.37-.68-.73-1.03-1.07-2.57-2.52-5.67-4.48-9.03-5.72Z"/>
</svg>