<?xml version="1.0" encoding="UTF-8"?>
<svg id="_레이어_1" data-name="레이어 1" xmlns="http://www.w3.org/2000/svg" viewBox="0 0 382.68 382.68">
  <defs>
    <style>
      .cls-1 {
        fill: #040000;
      }
    </style>
  </defs>
  <path class="cls-1" d="M191.34,334.07c-38.12,0-73.96-14.85-100.92-41.81-26.96-26.96-41.81-62.8-41.81-100.92s14.85-73.96,41.81-100.92c26.96-26.96,62.8-41.81,100.92-41.81s73.96,14.85,100.92,41.81c26.96,26.96,41.81,62.8,41.81,100.92s-14.85,73.96-41.81,100.92c-26.96,26.96-62.8,41.81-100.92,41.81ZM191.34,50.61c-37.58,0-72.92,14.64-99.51,41.22-26.58,26.58-41.22,61.92-41.22,99.51s14.64,72.92,41.22,99.51c26.58,26.58,61.92,41.22,99.51,41.22s72.92-14.64,99.51-41.22c26.58-26.58,41.22-61.92,41.22-99.51s-14.64-72.92-41.22-99.51c-26.58-26.58-61.92-41.22-99.51-41.22ZM196.77,320.81v-63.93s1.02.02,1.02.02c17.39.35,34.1,2.06,49.68,5.1l1.14.22-.39,1.09c-2.69,7.56-5.84,14.66-9.35,21.1-11.19,20.48-25.72,33.32-40.92,36.17l-1.18.22ZM198.77,258.93v59.45c14.17-3.17,27.75-15.52,38.35-34.92,3.29-6.03,6.25-12.66,8.82-19.71-14.83-2.82-30.69-4.44-47.17-4.82ZM185.91,320.81l-1.18-.22c-15.2-2.84-29.73-15.69-40.92-36.17-3.5-6.4-6.64-13.5-9.35-21.1l-.39-1.09,1.14-.22c15.58-3.04,32.29-4.76,49.68-5.1l1.02-.02v63.93ZM136.74,263.75c2.58,7.09,5.55,13.72,8.82,19.71,10.6,19.4,24.18,31.75,38.35,34.92v-59.45c-16.48.38-32.34,2-47.17,4.82ZM153.82,315.76l-3.87-1.3c-18.86-6.33-36.3-17.15-50.43-31.3-2.15-2.15-4.27-4.42-6.31-6.77l-.88-1.01,1.21-.56c8.45-3.88,18.21-7.25,29.01-10l.89-.23.3.87c3.04,8.74,6.59,16.85,10.56,24.11,4.94,9.06,10.55,16.87,16.68,23.23l2.84,2.94ZM95.61,276.09c1.73,1.95,3.52,3.85,5.32,5.65,12.97,12.98,28.76,23.12,45.87,29.48-5.19-5.89-9.97-12.83-14.25-20.68-3.89-7.12-7.39-15.03-10.39-23.55-9.81,2.54-18.74,5.6-26.56,9.09ZM228.88,315.76l2.82-2.94c6.13-6.39,11.75-14.21,16.68-23.23,3.97-7.26,7.53-15.37,10.56-24.11l.3-.87.89.23c10.8,2.75,20.56,6.11,29.01,10l1.21.56-.87,1.01c-1.96,2.26-4.08,4.54-6.31,6.77-14.15,14.15-31.58,24.97-50.43,31.3l-3.86,1.3ZM260.52,267c-3,8.51-6.5,16.43-10.39,23.55-4.28,7.83-9.06,14.77-14.26,20.68,17.11-6.36,32.9-16.5,45.88-29.48,1.86-1.86,3.65-3.76,5.33-5.65-7.82-3.5-16.75-6.55-26.56-9.09ZM85.54,266.66l-.49-.7c-14.11-20.05-22.21-43.62-23.42-68.15l-.05-1.05h50.44l.02.98c.48,19.47,3.15,38.15,7.92,55.54l.27.98-.98.25c-12.33,3.17-23.42,7.13-32.94,11.77l-.77.37ZM63.69,198.77c1.35,23.49,9.12,46.04,22.51,65.35,9.22-4.42,19.83-8.21,31.57-11.28-4.57-16.97-7.16-35.15-7.7-54.07h-46.38ZM297.14,266.66l-.76-.37c-9.58-4.65-20.67-8.61-32.94-11.77l-.98-.25.27-.98c4.77-17.42,7.44-36.11,7.92-55.54l.02-.98h50.44l-.05,1.05c-1.21,24.53-9.31,48.09-23.42,68.15l-.49.7ZM264.91,252.83c11.69,3.06,22.3,6.85,31.57,11.28,13.39-19.3,21.16-41.86,22.51-65.35h-46.38c-.54,18.88-3.13,37.06-7.7,54.07ZM130.8,251.85l-.25-.9c-4.58-16.56-7.15-34.44-7.64-53.15l-.03-1.03h63.02v49.25l-.98.02c-18.58.37-36.48,2.26-53.21,5.63l-.91.18ZM124.95,198.77c.54,17.84,2.99,34.91,7.29,50.75,16.29-3.22,33.66-5.05,51.67-5.46v-45.29h-58.97ZM251.86,251.84l-.91-.18c-16.79-3.38-34.69-5.27-53.2-5.63l-.98-.02v-49.25h63.01s-.03,1.02-.03,1.02c-.49,18.71-3.06,36.59-7.64,53.15l-.25.9ZM198.77,244.05c17.94.4,35.31,2.23,51.66,5.46,4.3-15.85,6.75-32.92,7.29-50.75h-58.95v45.29ZM321.1,185.9h-50.44l-.02-.98c-.48-19.47-3.15-38.15-7.92-55.54l-.27-.98.98-.25c12.33-3.17,23.42-7.13,32.94-11.77l.77-.37.49.7c14.11,20.05,22.21,43.61,23.42,68.15l.05,1.05ZM272.61,183.9h46.39c-1.35-23.49-9.12-46.05-22.51-65.35-9.22,4.42-19.83,8.21-31.57,11.28,4.57,16.97,7.16,35.15,7.7,54.07ZM122.9,185.9l.03-1.03c.49-18.71,3.06-36.59,7.64-53.15l.25-.9.91.18c16.79,3.38,34.69,5.27,53.2,5.63l.98.02v49.25h-63.01ZM132.25,133.15c-4.3,15.85-6.75,32.91-7.29,50.75h58.95v-45.29c-17.95-.4-35.32-2.23-51.66-5.46ZM259.79,185.9h-63.02v-48.03l-.6-1.21,1.58-.03c18.52-.36,36.42-2.25,53.22-5.63l.91-.18.25.9c4.58,16.57,7.15,34.45,7.64,53.15l.03,1.03ZM198.77,183.9h58.97c-.54-17.83-2.99-34.89-7.29-50.75-16.35,3.23-33.72,5.06-51.67,5.46v45.29ZM112.02,185.9h-50.44l.05-1.05c1.21-24.52,9.31-48.08,23.42-68.15l.49-.7.77.37c9.5,4.63,20.58,8.59,32.94,11.77l.98.25-.27.98c-4.77,17.44-7.44,36.13-7.92,55.54l-.02.98ZM63.69,183.9h46.38c.54-18.87,3.13-37.04,7.7-54.07-11.77-3.08-22.38-6.87-31.57-11.28-13.39,19.32-21.16,41.87-22.51,65.35ZM196.77,125.78v-63.91s1.18.22,1.18.22c15.2,2.84,29.73,15.68,40.92,36.15,3.51,6.44,6.65,13.53,9.35,21.1l.39,1.09-1.14.22c-15.58,3.04-32.29,4.76-49.68,5.1l-1.02.02ZM198.77,64.3v59.44c16.48-.38,32.34-2,47.17-4.82-2.57-7.05-5.54-13.68-8.82-19.71-10.6-19.39-24.18-31.73-38.35-34.9ZM185.63,125.78h-.74c-17.45-.36-34.16-2.07-49.68-5.11l-1.14-.22.39-1.09c2.71-7.6,5.85-14.7,9.35-21.1,11.19-20.48,25.72-33.32,40.92-36.17l1.18-.22v63.05l-.29.86ZM136.74,118.93c14.78,2.81,30.63,4.43,47.17,4.81v-59.44c-14.17,3.17-27.75,15.51-38.35,34.92-3.28,6-6.24,12.62-8.82,19.71ZM259.23,118.07l-.3-.87c-3.03-8.74-6.59-16.85-10.56-24.11-4.92-9.02-10.53-16.84-16.68-23.23l-2.83-2.94,3.87,1.3c18.87,6.33,36.3,17.16,50.42,31.3,2.15,2.15,4.27,4.42,6.31,6.77l.88,1.01-1.21.56c-8.44,3.88-18.19,7.25-29,10l-.89.23ZM235.87,71.45c5.2,5.92,9.99,12.86,14.25,20.68,3.89,7.12,7.39,15.04,10.39,23.55,9.82-2.54,18.74-5.6,26.55-9.09-1.73-1.95-3.52-3.85-5.32-5.65-12.95-12.98-28.74-23.12-45.87-29.48ZM123.45,118.07l-.89-.23c-10.8-2.75-20.56-6.11-29.01-10l-1.21-.56.87-1.01c2.04-2.36,4.17-4.64,6.31-6.77,14.15-14.15,31.58-24.97,50.43-31.3l3.86-1.3-2.82,2.94c-6.13,6.39-11.74,14.21-16.68,23.23-3.97,7.26-7.53,15.38-10.56,24.11l-.3.87ZM95.6,106.59c7.82,3.49,16.75,6.55,26.56,9.09,3-8.51,6.5-16.43,10.39-23.55,4.28-7.83,9.07-14.77,14.26-20.68-17.11,6.36-32.9,16.5-45.88,29.48-1.8,1.79-3.59,3.69-5.33,5.65Z"/>
</svg>