<?xml version="1.0" encoding="UTF-8"?>
<svg id="_레이어_1" data-name="레이어 1" xmlns="http://www.w3.org/2000/svg" viewBox="0 0 382.68 382.68">
  <defs>
    <style>
      .cls-1 {
        fill: #231815;
      }

      .cls-2 {
        fill: #373838;
      }
    </style>
  </defs>
  <g>
    <path class="cls-2" d="M114.75,118.04c-.48.53-3.34,3.71-3.82,4.29-.43-.47-2.98-2.85-3.48-3.25.53-.52,3.18-3.36,3.6-3.87l.65.61c-.37.36-2,2.09-2.89,3.08.22.22.49.48.77.74.71-.75,2.51-2.72,2.87-3.13l.6.57c-.37.39-2.2,2.35-2.89,3.11.32.29.61.57.87.79.95-1.07,2.74-3.07,3.11-3.5l.61.57ZM115.78,112.97l.73.68c-.21.2-.82.84-1.16,1.2.71.66,1.32,1.22,1.47,1.33l-.72.77c-.29-.34-3.63-3.46-3.99-3.74l.72-.77c.14.17.98.97,1.86,1.79.33-.37.92-1.03,1.09-1.26ZM115.4,123.51c1.33-1.39,4.02-4.28,4.59-4.93l.66.61c-.75.75-4.66,4.93-5.31,5.68-.36-.39-1.54-1.49-1.88-1.76.58-.56,3.12-3.27,4.36-4.62l-.6-.57c-1.27,1.32-3.8,4.05-4.33,4.65l-.62-.58c.71-.69,4.39-4.63,5.05-5.4.25.28,1.47,1.43,1.82,1.7-.58.57-3.13,3.28-4.36,4.63l.63.59Z"/>
    <path class="cls-2" d="M118.55,114.7l2.84-2.62.67.72-2.84,2.61-.67-.72Z"/>
    <path class="cls-2" d="M124.14,104.46c-.42.3-2.61,2.01-3,2.34l-.56-.71c.42-.28,2.61-2,3-2.34l.55.71ZM122.23,110.9c.93-1.11,1.35-2.75,1.08-3.72-.96.75-1.85,1.47-2.07,1.65l-.54-.69c.51-.36,4.36-3.36,4.83-3.78l.54.69c-.21.15-1.03.77-1.92,1.47.04.12.08.26.11.39,1.06.18,2.28-.05,3.19-.5l.12,1.03c-.97.26-2.06.46-3.22.31,0,1.1-.39,2.23-1.06,3.48l-1.06-.33ZM125.62,108.59c.14.22.82,1.08,1.2,1.58.92-.78,1.77-1.54,2.36-2.09l.54.69c-1.29,1.21-4.08,3.57-5.56,4.76l-.63-.68c.61-.46,1.56-1.22,2.51-2.03-.37-.49-1.07-1.39-1.25-1.58l.82-.64ZM126.21,101.01c.39.58,5.91,7.63,6.37,8.15l-.88.69c-.39-.58-5.9-7.63-6.37-8.15l.88-.69Z"/>
    <path class="cls-2" d="M135.92,101.91c-1.04-.19-2.02-.47-2.92-1,.08,1.23-.18,2.49-.71,3.7l-1.07-.4c1.05-1.45,1.07-3.36.46-4.76-.91.56-1.75,1.08-1.97,1.24l-.49-.8c.55-.3,4.19-2.55,4.7-2.91l.49.8c-.23.13-1.03.62-1.89,1.16.1.23.19.47.27.72.86.77,2.32,1.23,3.39,1.19l-.25,1.06ZM133.8,104.46c.71-.36,5.73-3.52,6.35-3.93.23.44,1.42,2.37,1.71,2.75l-.95.59c-.16-.38-1-1.75-1.16-2.01-.36.22-5.05,3.17-5.41,3.45l-.53-.86ZM136.39,94.47c.22.45,3.1,5.11,3.41,5.51l-.91.56c-.09-.2-.69-1.18-1.36-2.26-.72.43-2.32,1.44-2.51,1.58l-.49-.8c.22-.11,1.83-1.09,2.53-1.54-.73-1.18-1.44-2.3-1.58-2.49l.91-.56Z"/>
    <path class="cls-2" d="M146.06,92.87c-.41.15-5.56,2.61-5.93,2.83l-.37-.77c.41-.15,5.56-2.61,5.93-2.83l.37.77ZM144.24,92.01c-.47.2-3,1.41-3.44,1.64l-.37-.78c.47-.19,2.99-1.39,3.44-1.64l.37.78ZM145.7,98.5c1.05-.54,2.04-1.08,2.72-1.47l.37.77c-1.52.87-4.78,2.55-6.37,3.33l-.45-.78c.64-.29,1.71-.82,2.84-1.38l-.46-.96c-1.26.47-2.32.32-2.73-.53-.44-.93.3-1.98,1.77-2.68,1.46-.7,2.73-.61,3.17.32.41.86-.13,1.76-1.29,2.45l.44.93ZM144.48,97.11c.96-.46,1.38-1.03,1.14-1.54-.24-.51-.95-.54-1.91-.08-.94.45-1.35,1.02-1.11,1.52.24.51.94.55,1.88.1ZM150.8,93.65c-.25.11-1.04.47-1.48.68.97,2.03,1.89,3.94,2.05,4.22l-1.01.48c-.26-.65-4.11-8.73-4.45-9.33l1.01-.48c.12.3,1.03,2.24,2,4.27.45-.23,1.22-.62,1.45-.76l.44.92Z"/>
    <path class="cls-2" d="M159.24,91.44c-1.62.71-5.05,2.03-6.81,2.66l-.36-.82c.75-.25,1.91-.67,3.14-1.13l-.45-1.32c-.83.31-1.65.62-2.27.85-.28-.94-.81-2.47-1.16-3.38.7-.2,4.74-1.59,5.36-1.84l.29.85c-.48.14-2.97.98-4.38,1.47.19.58.41,1.19.62,1.75,1.36-.48,3.41-1.26,4.38-1.66l.27.79-2.17.81c.13.37.31.92.45,1.3,1.08-.42,2.11-.84,2.82-1.16l.27.79ZM162.32,93.29l.32.94c-.61.18-6.09,2.06-7.11,2.44h-.01c-.1-.37-.78-2.35-.92-2.69l.99-.34c.06.22.36,1.12.61,1.81,1.85-.62,5.64-1.96,6.13-2.17ZM160.55,92.45c-.14-.55-2.28-6.79-2.5-7.31l1.02-.35c.14.55,2.28,6.79,2.5,7.31l-1.02.35Z"/>
    <path class="cls-2" d="M169.24,88.82c-.02-.23-.16-1.02-.25-1.52-.77.18-1.52.35-2.1.47l-.21-.72c.78-.12,4.2-.88,5.55-1.29l.12.67c-.65.19-1.55.42-2.47.65.08.49.24,1.32.31,1.55l-.96.18ZM166.81,84.77c-.2-1.09.94-1.73,2.12-1.95,1.18-.22,2.45-.01,2.65,1.08.2,1.08-.92,1.71-2.1,1.92-1.18.22-2.47.03-2.67-1.05ZM167.83,84.59c.12.64.94.61,1.52.5.59-.11,1.37-.37,1.25-1.01-.12-.64-.94-.61-1.53-.5-.58.11-1.36.37-1.24,1.01ZM176.78,87.98c.02.31.5,2.9.59,3.21-.56.04-7.08,1.24-7.62,1.4-.02-.33-.49-2.86-.58-3.16l1.03-.19c0,.08.05.32.11.64,1.04-.17,4.56-.81,5.59-1.03-.06-.34-.11-.6-.14-.68l1.03-.19ZM176.2,90.52c-.05-.28-.1-.6-.17-.92-1.03.18-4.57.83-5.59,1.03.05.32.12.64.17.92,1.41-.25,4.17-.75,5.6-1.03ZM172.42,81.83l.96-.17c.04.49.98,5.64,1.12,6.12l-.96.17c0-.06-.02-.2-.06-.39-.61.14-1.94.46-2.11.52l-.14-.76c.18,0,1.54-.29,2.14-.43-.28-1.67-.85-4.7-.95-5.06ZM175.69,87.7c-.04-.5-1.04-5.94-1.18-6.42l.99-.18c.04.5,1.04,5.93,1.18,6.42l-.99.18Z"/>
    <path class="cls-2" d="M188.16,84.77c.08,2.46-1,3.73-2.55,3.78-1.56.05-2.73-1.15-2.81-3.6-.08-2.38,1-3.7,2.56-3.75,1.55-.05,2.72,1.19,2.8,3.57ZM187.09,84.8c-.05-1.56-.63-2.61-1.7-2.57-1.12.04-1.58,1.12-1.53,2.68.06,1.7.59,2.65,1.71,2.61,1.07-.04,1.57-1.01,1.52-2.72ZM193.24,85.46c-.28,0-1.14.01-1.63.03.08,2.29.16,4.49.2,4.82l-1.12.04c.02-.7-.28-9.65-.35-10.34l1.12-.04c-.01.32.04,2.38.12,4.58.5-.03,1.37-.08,1.63-.12l.04,1.02Z"/>
    <path class="cls-2" d="M195.52,81.17c.54.08,4.59.39,5.25.41-.36,3.23-1.77,5.72-5.55,7.62l-.69-1.13c2.01-.6,3.3-1.76,4.1-3.03-1.08-.04-3.11-.11-3.83-.12l.04-1.01c.85.07,3.37.23,4.24.26.26-.59.43-1.18.51-1.72-.63-.07-3.49-.3-4.14-.3l.08-.99ZM205.14,86.42c-.28-.03-1.14-.11-1.63-.15-.17,2.25-.33,4.39-.33,4.72l-1.11-.09c.1-.69.8-9.62.8-10.31l1.11.09c-.05.32-.22,2.43-.4,4.66.5.03,1.37.07,1.63.07l-.08,1.02Z"/>
    <path class="cls-2" d="M210.18,82.61c1.53.29,2.39,1.79,1.94,4.13-.47,2.42-1.81,3.44-3.35,3.14-1.56-.3-2.42-1.75-1.96-4.17.45-2.33,1.81-3.4,3.36-3.1ZM208.97,88.86c1.06.21,1.78-.66,2.1-2.33.3-1.53-.03-2.71-1.09-2.91-1.12-.22-1.82.76-2.12,2.29-.32,1.67-.01,2.74,1.11,2.95ZM216.53,82.82c-.18.67-1.88,9.47-1.96,10.16l-1.1-.21c.18-.67,1.88-9.47,1.96-10.16l1.1.21Z"/>
    <path class="cls-2" d="M216.68,91.32c.95.33,9.05,2.82,10.02,3.08l-.29.94c-.95-.33-9.05-2.82-10.02-3.08l.29-.94ZM218.59,89.99c.24-.64,1.46-4.61,1.62-5.26l1.04.32c-.08.23-.29.89-.52,1.66,1.3.41,3.91,1.21,5.21,1.6.24-.77.44-1.43.5-1.67l1.04.32c-.23.63-1.45,4.6-1.62,5.26-.58-.24-6.66-2.11-7.27-2.24ZM220.46,87.6c-.21.64-.4,1.3-.55,1.79,1.34.42,3.86,1.2,5.21,1.6.15-.49.36-1.14.55-1.79l-5.21-1.6Z"/>
    <path class="cls-2" d="M245.68,98.08c-.69,1.28-2.04,1.77-3.51.98l-2.3-1.25c-.76,1.4-1.44,2.67-1.6,3.05l-1.08-.58c.51-.79,3.65-6.58,4.04-7.43l3.33,1.81c1.47.8,1.79,2.19,1.11,3.43ZM242.43,98.06c.93.5,1.73.31,2.22-.59.46-.85.17-1.6-.76-2.1l-2.07-1.12c-.39.69-.92,1.67-1.47,2.68l2.08,1.13Z"/>
    <path class="cls-2" d="M251.94,98.89c1.92,1.26,2.72,3.77,1.26,6-1.47,2.24-4.06,2.52-5.97,1.26s-2.72-3.77-1.25-6.01c1.46-2.23,4.05-2.51,5.96-1.25ZM247.82,105.23c1.56,1.02,3.31.58,4.35-1,1.04-1.58.72-3.38-.83-4.4-1.56-1.02-3.31-.58-4.35.99-1.04,1.58-.73,3.38.83,4.41Z"/>
    <path class="cls-2" d="M254.22,107.55c-.67,1.01-.46,2.01.7,2.93.83.65,1.73.73,2.21.12.4-.51.25-1.14-.68-2.81-.86-1.53-1.42-2.65-.63-3.66.77-.98,2.22-.93,3.62.17,1.26.98,1.92,2.4,1,3.77l-.98-.77c.57-.84.14-1.66-.62-2.26-.91-.71-1.67-.65-2.03-.2-.35.45-.12,1.23.59,2.49,1.1,1.91,1.54,2.94.74,3.96-.89,1.13-2.4,1.11-3.81,0-1.72-1.35-2.09-2.98-1.11-4.52l1,.78Z"/>
    <path class="cls-2" d="M266.83,112.24c-.2-.23-.99-.96-1.88-1.75-1.34,1.44-4.41,4.86-4.88,5.47l-.89-.8c.56-.53,3.64-3.94,4.93-5.42-.88-.79-1.69-1.51-1.94-1.68l.72-.8c.47.52,4.09,3.78,4.66,4.19l-.72.8Z"/>
    <path class="cls-2" d="M264.62,115.08l2.74,2.73-.69.7-2.74-2.72.69-.7Z"/>
    <path class="cls-2" d="M274.9,119c1.5,1.73,1.59,4.37-.42,6.11-2.02,1.75-4.59,1.32-6.09-.41-1.5-1.73-1.59-4.37.43-6.12,2.01-1.74,4.58-1.31,6.08.42ZM269.22,123.97c1.22,1.41,3.03,1.46,4.46.22,1.42-1.23,1.61-3.05.39-4.46-1.22-1.41-3.03-1.46-4.45-.22-1.43,1.24-1.62,3.06-.4,4.46Z"/>
    <path class="cls-2" d="M280.59,130.65c-1.17.85-2.61.72-3.59-.63l-1.54-2.12c-1.29.94-2.45,1.79-2.76,2.06l-.72-.99c.8-.49,6.13-4.37,6.84-4.98l2.23,3.07c.98,1.35.67,2.74-.47,3.58ZM277.66,129.23c.62.85,1.43,1.03,2.25.42.79-.57.84-1.37.22-2.22l-1.38-1.9c-.65.46-1.55,1.11-2.48,1.79l1.39,1.91Z"/>
    <path class="cls-2" d="M285.78,136.23c-.13-.27-.69-1.2-1.32-2.2-1.69,1.01-5.58,3.45-6.2,3.9l-.63-1.02c.68-.36,4.59-2.77,6.24-3.84-.63-1.01-1.21-1.92-1.4-2.15l.92-.57c.31.63,2.88,4.76,3.31,5.31l-.92.57Z"/>
    <path class="cls-2" d="M288.03,138.08c-.85.39-6.52,3.55-7.3,4.07l-.6-1.07c.85-.39,6.52-3.55,7.3-4.07l.6,1.07Z"/>
    <path class="cls-2" d="M281.63,143.63c.88-.33,6.75-3.09,7.57-3.56l.8,1.69c-.82.73-4.25,4.46-5.16,5.46,1.35-.05,6.44-.31,7.47-.56l.79,1.67c-.88.33-6.75,3.09-7.57,3.56l-.51-1.09c.83-.34,5.46-2.45,6.54-2.96l-7.74.39-.43-.92,5.22-5.77c-1.08.51-5.65,2.72-6.45,3.15l-.51-1.08Z"/>
    <path class="cls-2" d="M288.15,159.13c.37-.31,1.07-.92,1.85-1.62-.27-.85-.92-2.67-1.26-3.5-1.05-.04-1.98-.08-2.47-.08l-.43-1.19c1.99.17,8.07.52,9.06.46l.36,1c-.79.58-5.27,4.69-6.7,6.08l-.42-1.17ZM290.8,156.8l2.89-2.57c-.21-.01-2.04-.09-3.88-.17l.99,2.74Z"/>
    <path class="cls-2" d="M291.24,165.98l-1.01.28c-.13-.65-1.18-4.38-1.43-5.06.92-.18,7.17-1.95,8.05-2.27l.33,1.16c-.76.15-5.15,1.38-7.09,1.96.37,1.34.98,3.48,1.15,3.93Z"/>
    <path class="cls-2" d="M301.24,180.17c-.92-.19-6.62-1.18-8.69-1.48l-.14-.94,6.26-3.06-6.91-1.17-.15-.95c1.88-.87,7.05-3.4,7.87-3.84l.2,1.28c-.8.29-4.96,2.15-6.47,2.86,1.66.27,6.17.99,7.06,1.04l.17,1.08c-.84.31-4.94,2.28-6.44,3,1.66.29,6.19.88,7.05.92l.19,1.26Z"/>
    <path class="cls-2" d="M294.35,188.06l-1.05.06c0-.67-.26-5.05-.35-5.76.94.01,7.42-.38,8.35-.51,0,.72.26,4.97.35,5.63l-1.05.06c0-.49-.13-2.97-.25-4.47-.64.03-1.5.08-2.42.14.05,1.27.23,3.89.29,4.36l-1.04.06c0-.47-.14-3.09-.24-4.36-1.08.07-2.14.13-2.87.19.07,1.52.24,4.1.31,4.6Z"/>
    <path class="cls-2" d="M293.32,189.38c.94.08,7.43.16,8.36.1l-.04,3.55c-.02,1.9-1,2.71-2.16,2.7-1.12-.01-1.51-.81-1.71-1.42-.2.84-.83,1.73-2.05,1.72-1.43-.02-2.47-.98-2.45-2.63l.05-4.01ZM297.29,190.57l-3.01-.04-.03,2.5c-.01,1.18.51,1.79,1.49,1.8,1.06.01,1.51-.63,1.52-2.03l.02-2.23ZM298.24,190.58l-.03,2.23c-.01,1.19.39,1.72,1.24,1.73.61,0,1.23-.37,1.24-1.83l.03-2.1-2.48-.03Z"/>
    <path class="cls-2" d="M295.79,198.42c-1.21,0-1.94.71-2.07,2.18-.09,1.05.33,1.85,1.11,1.91.65.06,1.1-.41,1.98-2.1.81-1.56,1.45-2.63,2.72-2.52,1.24.11,1.99,1.35,1.84,3.12-.14,1.59-.96,2.92-2.61,2.89l.11-1.24c1.01.02,1.47-.79,1.55-1.76.1-1.15-.37-1.75-.94-1.8-.57-.05-1.1.57-1.76,1.86-1,1.96-1.62,2.89-2.92,2.78-1.43-.12-2.24-1.41-2.08-3.19.19-2.17,1.35-3.37,3.19-3.4l-.11,1.27Z"/>
    <path class="cls-2" d="M290.74,214.12c.48-.08,1.39-.23,2.42-.42.21-.86.59-2.76.73-3.65-.88-.58-1.65-1.09-2.07-1.35l.25-1.24c1.61,1.18,6.64,4.63,7.51,5.1l-.21,1.05c-.97.09-6.94,1.27-8.88,1.73l.25-1.22ZM294.21,213.5l3.8-.71c-.17-.12-1.7-1.14-3.23-2.15l-.57,2.86Z"/>
    <path class="cls-2" d="M288.72,221.6c.42-.11,2.83-.74,4.03-1.09l.62-2.19c-1.58-.45-3.04-.85-3.45-.93l.33-1.18c.88.32,7.1,2.09,8.02,2.27l-1.03,3.65c-.46,1.6-1.74,2.23-2.99,1.87-1.05-.3-1.77-1.18-1.72-2.38-1.21.33-3.73,1.09-4.18,1.3l.37-1.32ZM297.03,219.36c-.7-.21-1.69-.49-2.71-.78l-.65,2.27c-.29,1.02.08,1.75.94,2,.82.23,1.48-.22,1.77-1.23l.64-2.26Z"/>
    <path class="cls-2" d="M294.78,229.97c-.64,1.71-1.9,2.56-3.56,2.45l.47-1.25c.89.02,1.68-.36,2.14-1.57.61-1.63-.29-3-2.1-3.68-1.7-.63-3.41-.17-4.03,1.5-.47,1.26-.02,2.04.63,2.58l-.46,1.24c-1.33-.86-1.75-2.55-1.16-4.13.83-2.24,2.98-3.25,5.44-2.33,2.47.92,3.41,3.14,2.64,5.2Z"/>
    <path class="cls-2" d="M289.63,241.47c-.81-.46-6.69-3.24-7.56-3.57l.51-1.09c.39.22,1.92.96,3.53,1.72.51-1.05,1.55-3.26,2.04-4.32-1.61-.76-3.15-1.48-3.57-1.63l.51-1.08c.82.46,6.69,3.24,7.57,3.57l-.51,1.09c-.35-.21-1.65-.83-3.09-1.52-.51,1.05-1.55,3.26-2.04,4.32,1.44.68,2.75,1.29,3.13,1.43l-.51,1.08Z"/>
    <path class="cls-2" d="M287.94,244.52c-.79-.51-6.48-3.62-7.34-4.01l.59-1.07c.79.51,6.48,3.62,7.34,4.01l-.59,1.07Z"/>
    <path class="cls-2" d="M283.7,251.66c-.84-1.08-4.39-5.56-5.57-6.91l.58-.94c1.75.44,7.25,1.72,8.6,1.97l-.69,1.14c-1.05-.33-5.98-1.62-6.96-1.84.62.77,3.99,4.7,4.75,5.45l-.69,1.14Z"/>
    <path class="cls-2" d="M273.54,253.38l-.86-.61c.43-.52,2.97-4.09,3.35-4.71.72.6,6.01,4.37,6.82,4.85-.46.56-2.93,4.03-3.27,4.6l-.86-.61c.31-.38,1.77-2.4,2.62-3.63-.51-.38-1.22-.88-1.97-1.42-.76,1.02-2.27,3.17-2.51,3.58l-.85-.61c.3-.36,1.83-2.5,2.55-3.55-.88-.63-1.75-1.25-2.35-1.66-.9,1.23-2.39,3.34-2.65,3.77Z"/>
    <path class="cls-2" d="M254.13,282.12c-.28-.89-2.17-6.37-2.91-8.32l.75-.58,5.71,4-2.32-6.62.76-.59c1.67,1.23,6.39,4.53,7.17,5.03l-1.03.79c-.65-.56-4.28-3.31-5.63-4.28.57,1.58,2.12,5.89,2.51,6.69l-.86.67c-.68-.58-4.38-3.23-5.75-4.19.55,1.59,2.22,5.85,2.6,6.62l-1.01.78Z"/>
    <path class="cls-2" d="M242.99,288.88c-.17-.92-1.4-6.58-1.9-8.61l.81-.49,5.2,4.65-1.52-6.85.83-.49c1.52,1.42,5.81,5.25,6.52,5.85l-1.11.66c-.58-.63-3.86-3.79-5.09-4.92.38,1.64,1.4,6.1,1.7,6.94l-.94.56c-.6-.66-3.97-3.72-5.21-4.84.36,1.65,1.51,6.07,1.8,6.88l-1.09.65Z"/>
    <path class="cls-2" d="M231.12,294.29c-.06-.93-.62-6.71-.87-8.78l.87-.39,4.61,5.24-.7-6.98.88-.39c1.34,1.58,5.15,5.9,5.79,6.58l-1.18.53c-.5-.7-3.38-4.22-4.47-5.48.18,1.67.68,6.22.87,7.09l-1,.45c-.52-.73-3.51-4.17-4.61-5.42.16,1.68.79,6.21.98,7.04l-1.16.52Z"/>
    <path class="cls-2" d="M228.03,287.84l-1.31.48-.48-1.31,1.31-.48.48,1.31Z"/>
    <path class="cls-2" d="M224.24,290.6c-.45-1.13-1.39-1.53-2.8-1.1-1.01.31-1.59,1-1.36,1.75.19.62.79.86,2.69,1.04,1.75.17,2.98.35,3.36,1.58.37,1.19-.5,2.35-2.2,2.87-1.53.47-3.06.2-3.66-1.33l1.19-.37c.36.94,1.28,1.06,2.21.78,1.1-.34,1.49-1,1.32-1.55-.17-.55-.94-.8-2.38-.94-2.19-.19-3.29-.42-3.67-1.66-.42-1.38.47-2.6,2.17-3.13,2.08-.64,3.63-.02,4.34,1.67l-1.21.37Z"/>
    <path class="cls-2" d="M212.08,297.05c-.32-1.42.36-2.68,1.99-3.05l2.55-.58c-.35-1.56-.69-2.96-.81-3.35l1.19-.27c.14.93,1.6,7.36,1.88,8.26l-3.7.84c-1.63.37-2.79-.46-3.1-1.84ZM214.54,294.91c-1.03.23-1.51.91-1.28,1.9.22.95.93,1.32,1.96,1.08l2.29-.52c-.16-.78-.41-1.86-.67-2.99l-2.31.53Z"/>
    <path class="cls-2" d="M204.1,293.45l-.16-1.04c.67-.05,5-.72,5.71-.88.07.94,1.06,7.36,1.28,8.27-.72.06-4.93.71-5.58.86l-.16-1.04c.49-.04,2.95-.41,4.43-.66-.09-.63-.22-1.49-.36-2.4-1.26.17-3.86.58-4.32.69l-.16-1.03c.47-.04,3.07-.42,4.32-.64-.17-1.07-.33-2.12-.45-2.85-1.51.21-4.06.62-4.55.73Z"/>
    <path class="cls-2" d="M199.83,301.29c-1.82.14-3.12-.65-3.72-2.2l1.33-.1c.35.82,1.03,1.38,2.33,1.28,1.73-.13,2.6-1.53,2.45-3.45-.14-1.81-1.28-3.16-3.06-3.02-1.34.1-1.86.84-2.07,1.65l-1.32.1c.21-1.57,1.58-2.66,3.26-2.79,2.38-.18,4.21,1.33,4.41,3.95.21,2.63-1.41,4.42-3.6,4.59Z"/>
    <path class="cls-2" d="M187.29,301.48c.07-.94.08-3.24.08-4.94.02-2.89,1.81-3.6,3.5-3.59s3.48.74,3.46,3.63c0,1.7-.02,4.01.04,4.94h-1.24c.05-.7.09-3.08.1-4.52,0-1.01-.04-2.93-2.36-2.94-2.32-.01-2.39,1.91-2.39,2.92,0,1.44,0,3.82.05,4.51h-1.24Z"/>
    <path class="cls-2" d="M180.33,293.64l.08-1.04c.65.1,4.52.4,5.24.41-.14.93-.66,7.39-.66,8.33l-1.2-.09c.12-.76.49-5.3.61-7.33-1.39-.12-3.6-.28-4.08-.29Z"/>
    <path class="cls-2" d="M172.99,291.52c.1.48.3,1.38.53,2.4.87.17,2.78.47,3.68.57.54-.9,1.02-1.7,1.25-2.12l1.24.19c-1.11,1.66-4.33,6.83-4.75,7.73l-1.05-.16c-.13-.97-1.58-6.88-2.12-8.79l1.23.19ZM173.76,294.95l.87,3.77c.11-.18,1.06-1.74,2.01-3.32l-2.88-.45Z"/>
    <path class="cls-2" d="M164.63,297.16c.29.1,1.34.35,2.5.6.46-1.91,1.44-6.4,1.55-7.17l1.17.26c-.22.74-1.23,5.22-1.62,7.15,1.16.26,2.22.48,2.52.51l-.23,1.05c-.66-.22-5.42-1.28-6.12-1.36l.23-1.05Z"/>
    <path class="cls-2" d="M161.71,297.46c.32-.88,2.03-7.15,2.2-8.07l1.18.32c-.32.88-2.03,7.15-2.2,8.07l-1.18-.32Z"/>
    <path class="cls-2" d="M153.81,294.98c.85-1.07,4.39-5.55,5.44-7.02l1.05.34c-.02,1.8,0,7.44.07,8.82l-1.26-.41c.08-1.1.2-6.19.18-7.2-.61.78-3.65,4.96-4.21,5.88l-1.26-.41Z"/>
    <path class="cls-2" d="M149.78,285.5l.4-.98c.6.3,4.66,1.94,5.35,2.17-.42.84-2.86,6.85-3.14,7.75-.65-.32-4.59-1.92-5.22-2.12l.4-.98c.44.22,2.74,1.16,4.14,1.7.25-.58.57-1.38.92-2.24-1.17-.5-3.61-1.48-4.05-1.62l.39-.97c.42.21,2.85,1.21,4.04,1.66.41-1,.81-1.99,1.07-2.67-1.4-.59-3.8-1.55-4.28-1.71Z"/>
    <path class="cls-2" d="M135.43,286.45c.69-.63,4.87-4.65,6.33-6.14l.84.44-1.23,6.87,5.03-4.89.85.44c-.41,2.03-1.42,7.7-1.55,8.62l-1.15-.6c.24-.82,1.2-5.27,1.51-6.91-1.2,1.18-4.45,4.4-5.01,5.09l-.97-.5c.25-.86,1.08-5.33,1.38-6.98-1.22,1.17-4.37,4.48-4.91,5.15l-1.13-.59Z"/>
    <path class="cls-2" d="M133.15,276.2l.57-.89c.54.41,4.22,2.78,4.85,3.13-.57.75-4.08,6.21-4.53,7.03-.58-.43-4.16-2.74-4.74-3.05l.57-.89c.39.3,2.48,1.65,3.75,2.44.36-.53.82-1.25,1.32-2.03-1.06-.71-3.27-2.12-3.69-2.35l.56-.88c.38.28,2.58,1.72,3.66,2.39.58-.91,1.16-1.81,1.55-2.43-1.27-.85-3.45-2.23-3.89-2.48Z"/>
    <path class="cls-2" d="M132.71,274.61c-.62.71-4.52,5.89-5.03,6.68l-2.84-2.13c-1.52-1.14-1.59-2.41-.9-3.33.67-.89,1.55-.74,2.16-.54-.56-.66-.9-1.7-.17-2.67.86-1.14,2.25-1.41,3.57-.42l3.2,2.41ZM128.83,277.87l-1.78-1.34c-.95-.71-1.62-.71-2.13-.02-.37.49-.43,1.21.74,2.09l1.68,1.26,1.49-1.98ZM129.4,277.11l1.81-2.41-1.99-1.5c-.94-.71-1.75-.65-2.34.13-.63.84-.38,1.59.74,2.43l1.78,1.34Z"/>
    <path class="cls-2" d="M123.97,271.27c.72-.98.57-1.98-.54-2.96-.79-.7-1.69-.82-2.2-.24-.43.49-.32,1.13.53,2.84.78,1.57,1.27,2.72.42,3.69-.82.94-2.27.81-3.6-.36-1.2-1.05-1.78-2.5-.79-3.82l.94.82c-.61.8-.23,1.65.5,2.29.87.76,1.63.74,2.01.31s.19-1.22-.46-2.52c-.99-1.97-1.37-3.02-.52-4,.95-1.08,2.46-.97,3.8.21,1.64,1.44,1.92,3.08.86,4.58l-.96-.84Z"/>
    <path class="cls-2" d="M119.73,265.65l-.99-.97.97-.99.99.97-.97.99Z"/>
    <path class="cls-2" d="M108.43,263.98c1.27-.53,6.53-2.76,8.15-3.53l.75.8c-.88,1.57-3.59,6.53-4.19,7.77l-.91-.97c.6-.92,3.16-5.34,3.63-6.22-.91.39-5.59,2.59-6.52,3.13l-.91-.97Z"/>
    <path class="cls-2" d="M109.46,253.7l.82-.67c.39.55,3.15,3.95,3.64,4.48-.77.53-5.81,4.63-6.5,5.27-.42-.59-3.1-3.9-3.56-4.38l.82-.67c.28.4,1.84,2.34,2.8,3.49.5-.39,1.17-.94,1.89-1.52-.78-1-2.45-3.04-2.77-3.38l.81-.66c.27.39,1.92,2.44,2.73,3.41.84-.68,1.67-1.35,2.23-1.83-.94-1.2-2.58-3.2-2.92-3.56Z"/>
    <path class="cls-2" d="M106.33,247.47c-.18.39-1.21,2.66-1.7,3.81l1.3,1.87c1.35-.94,2.58-1.82,2.9-2.09l.7,1c-.81.48-6.11,4.18-6.83,4.78l-2.17-3.11c-.96-1.37-.62-2.76.44-3.5.89-.63,2.03-.63,2.93.17.5-1.14,1.51-3.57,1.64-4.06l.78,1.12ZM102.82,255.31c.61-.41,1.45-1,2.32-1.6l-1.35-1.94c-.61-.87-1.41-1.05-2.14-.54-.7.49-.77,1.28-.17,2.15l1.35,1.93Z"/>
    <path class="cls-2" d="M96.04,246.92c-.92-1.57-.78-3.09.35-4.31l.67,1.15c-.58.67-.78,1.53-.13,2.65.88,1.5,2.51,1.67,4.18.69,1.56-.92,2.28-2.54,1.38-4.08-.68-1.16-1.57-1.3-2.39-1.14l-.67-1.14c1.51-.49,3.08.25,3.94,1.71,1.21,2.06.64,4.37-1.63,5.7-2.28,1.34-4.59.66-5.7-1.23Z"/>
    <path class="cls-2" d="M97.49,233.64l.95-.46c.25.62,2.17,4.56,2.53,5.19-.87.35-6.71,3.19-7.52,3.67-.27-.67-2.14-4.5-2.47-5.07l.95-.46c.18.46,1.26,2.7,1.94,4.04.58-.27,1.35-.65,2.18-1.05-.54-1.15-1.7-3.51-1.94-3.92l.94-.46c.17.44,1.31,2.8,1.89,3.94.97-.47,1.93-.94,2.58-1.27-.65-1.38-1.79-3.69-2.04-4.13Z"/>
    <path class="cls-2" d="M95.01,227.57l.97-.39c.2.63,1.67,4.22,1.98,4.87-.89.29-6.9,2.74-7.74,3.16l-.45-1.11c.73-.23,4.96-1.95,6.82-2.74-.51-1.29-1.36-3.34-1.58-3.77Z"/>
    <path class="cls-2" d="M94.22,226.34l-.46-1.31,1.31-.46.46,1.31-1.31.46Z"/>
    <path class="cls-2" d="M92.63,216.57c-.39.29-1.13.85-1.96,1.48.21.86.74,2.72,1.02,3.58,1.04.11,1.97.21,2.45.25l.35,1.21c-1.97-.31-8.02-1.07-9.01-1.09l-.29-1.03c.82-.52,5.58-4.31,7.1-5.6l.34,1.2ZM89.84,218.7l-3.06,2.37c.21.03,2.03.23,3.85.44l-.8-2.8Z"/>
    <path class="cls-2" d="M85.1,209.3c1.42-.29,2.67.43,3,2.06l.52,2.57c1.56-.32,2.97-.61,3.37-.73l.24,1.2c-.93.11-7.39,1.42-8.3,1.67l-.75-3.72c-.33-1.64.53-2.78,1.92-3.06ZM87.17,211.81c-.21-1.04-.87-1.53-1.87-1.32-.95.19-1.34.89-1.13,1.93l.47,2.31c.78-.15,1.87-.37,3-.59l-.47-2.32Z"/>
    <path class="cls-2" d="M84.06,201.41c1.44-.18,2.63.62,2.84,2.28l.33,2.59c1.58-.2,3.01-.39,3.41-.48l.15,1.21c-.94.05-7.47.87-8.39,1.06l-.47-3.76c-.21-1.65.73-2.73,2.14-2.91ZM85.94,204.06c-.13-1.05-.76-1.59-1.77-1.46-.96.12-1.4.79-1.27,1.84l.29,2.33c.79-.09,1.89-.23,3.04-.37l-.29-2.34Z"/>
  </g>
  <g>
    <path class="cls-1" d="M124.68,130.93c-.44-.54-1.04-1.17-1.46-1.58-.33.35-1.62,1.77-1.91,2.11l-.68-.63c.39-.36,2.13-2.26,2.63-2.83.85.85,1.59,1.64,2.1,2.2l-.68.73ZM122.64,134.09c.73-.7,6.52-6.89,7.16-7.66l.67.63c-.73.7-6.52,6.89-7.16,7.66l-.67-.63ZM127.73,127.67c-.44-.54-1.04-1.17-1.46-1.58-.28.3-1.64,1.79-1.92,2.13l-.68-.63c.39-.36,2.16-2.29,2.65-2.86.85.85,1.59,1.63,2.1,2.21l-.69.74ZM132.74,130.71l.67.62c-.63.62-4.86,5.15-5.4,5.78-.26-.31-2.68-2.57-3.14-2.93.59-.58,4.7-4.97,5.27-5.64l.65.61c-.53.51-3.35,3.54-4.58,4.89l.58.54c1.26-1.33,4.05-4.31,4.46-4.8l.63.59c-.45.45-3.24,3.43-4.48,4.78l.65.61c1.29-1.34,4.21-4.47,4.69-5.04Z"/>
    <path class="cls-1" d="M133.9,124.57c-1.11.91-2.62.99-3.61-.22-.99-1.21-.62-2.67.49-3.58.96-.78,2.19-.94,3.14-.22.54-.43,1.69-1.37,2.23-1.83-.72-.88-1.4-1.69-1.55-1.83l.82-.67c.25.38,3.16,3.93,3.49,4.25l-.82.67c-.1-.16-.69-.89-1.35-1.7-.54.42-1.63,1.32-2.18,1.79.76,1.16.39,2.49-.65,3.35ZM133.31,123.85c.63-.52.92-1.41.27-2.21-.65-.8-1.59-.68-2.22-.17-.63.52-.92,1.41-.27,2.21s1.59.69,2.22.17ZM142.27,122.91l-.09,1.04c-.72-.03-1.65-.09-2.58-.53.21.92.17,1.87-.05,2.9l-.99-.15c.15.17.27.29.35.37l.03.02c-.36.23-2.86,2.29-3.15,2.58-.25-.36-2.31-2.87-2.54-3.1l.78-.64c.06.09.33.42.68.84.35-.27,1.29-1.04,1.61-1.32-.36-.44-.65-.8-.73-.87l.77-.63c.14.21,1.41,1.83,2.12,2.67.57-1.32.35-2.9-.53-4.11l.71-.59c.2.28.37.54.5.82.73.66,2.05.88,3.1.71ZM137.63,126.5c-.23-.28-.49-.62-.78-.96l-1.61,1.33c.27.35.56.68.78.96.49-.39,1.14-.92,1.61-1.33Z"/>
    <path class="cls-1" d="M147.58,112.99c-.77.42-5.88,3.6-6.67,4.14-.18-.38-1.38-2.31-1.73-2.78l.96-.59c.19.33.78,1.3,1.22,1.98,1.63-1,5.08-3.18,5.69-3.59l.52.85ZM140.37,118.95c.88-.49,8.08-4.96,8.91-5.53l.52.84c-.88.49-8.08,4.96-8.91,5.53l-.52-.84ZM150.51,116.99l.52.85c-.77.42-6.2,3.79-6.98,4.33-.18-.38-1.19-2.01-1.54-2.49l.96-.59c.19.32.65,1.09,1.03,1.69,1.7-1.04,5.4-3.38,6.01-3.79Z"/>
    <path class="cls-1" d="M154.52,110.87c-.17-.54-1.57-4.07-1.77-4.47l.98-.39c.06.14.27.71.52,1.37.58-.21,2.09-.81,2.62-1.03-.26-.66-.49-1.21-.55-1.36l.97-.38c.13.43,1.52,3.96,1.76,4.47-.56.18-4.02,1.55-4.55,1.8ZM154.58,108.19l.6,1.52c.76-.29,1.87-.72,2.62-1.03l-.6-1.52c-.54.2-2.06.8-2.62,1.03ZM158.12,113.99c1.84-.7,5.66-2.22,6.46-2.56l.33.84c-1.01.36-6.52,2.53-7.42,2.93-.16-.5-.76-2.03-.96-2.42.76-.26,4.19-1.6,5.89-2.3l-.29-.75c-1.72.65-5.14,2.01-5.88,2.33l-.32-.8c.93-.32,5.92-2.28,6.84-2.7.1.36.72,1.93.92,2.33-.77.27-4.21,1.61-5.89,2.3l.32.8ZM162.99,104.59l.37.93c-.27.09-1.1.41-1.56.59.37.94.7,1.75.79,1.91l-.98.39c-.12-.44-1.81-4.72-2.02-5.13l.98-.39c.06.21.46,1.27.9,2.38.45-.19,1.27-.54,1.53-.67Z"/>
    <path class="cls-1" d="M169.93,103.1c-.43.07-4.58,1.08-4.99,1.22l-.19-.78c.43-.07,4.58-1.08,4.99-1.22l.19.78ZM168.7,101.95c-.51.1-2.7.63-3.18.78l-.19-.79c.5-.08,2.69-.62,3.18-.78l.19.79ZM168.38,107.27c-1.28.31-2.36-.02-2.6-1-.23-.94.57-1.75,1.85-2.06,1.26-.31,2.34.03,2.57.98.24.98-.57,1.77-1.83,2.08ZM168.2,106.54c.75-.18,1.17-.61,1.05-1.11-.12-.49-.7-.68-1.44-.5-.72.18-1.13.61-1.02,1.1.12.5.69.68,1.41.51ZM175.49,107.81c.23.96-1.12,1.88-3.42,2.44-2.29.56-3.92.37-4.16-.59-.22-.91,1.12-1.87,3.42-2.43,2.3-.56,3.93-.33,4.15.58ZM174.41,108.05c-.09-.38-1.23-.45-2.89-.05-1.65.4-2.63.99-2.54,1.37.1.42,1.23.43,2.88.02,1.65-.4,2.65-.93,2.55-1.35ZM171.63,106.42c-.07-.49-1.32-5.59-1.48-6.06l.93-.23c.03.24.36,1.64.7,3.03.42-.09,1.02-.24,1.41-.34-.36-1.49-.73-2.93-.81-3.17l.97-.24c.08.52,1.47,6.23,1.64,6.73l-.97.24c-.03-.23-.31-1.42-.63-2.73-.4.08-.99.23-1.41.34.26,1.08.51,2.02.58,2.2l-.93.23Z"/>
    <path class="cls-1" d="M186.55,104.67c2.06-.04,3.46.51,3.52,1.48.07,1.15-1.46,1.83-3.81,1.98-2.35.15-3.95-.34-4.02-1.49-.06-.97,1.24-1.69,3.3-1.9,0-.32-.04-.86-.07-1.19-2.18.14-4.25.28-4.71.33l-.06-.92c1.01-.01,9.46-.54,10.46-.65l.06.92c-.47,0-2.55.12-4.73.26,0,.32.04.86.07,1.19ZM181.29,101.26c1.68-.18,3.41-.94,4.12-1.84-1.7.1-3.33.22-3.66.25l-.06-.9c.72,0,7.23-.4,7.95-.49l.06.9c-.3,0-1.56.07-3.01.16-.12.19-.25.35-.39.52,1.15.54,2.65.73,3.97.69l-.51.91c-1.38-.12-2.89-.37-4.06-1.01-1.06.88-2.44,1.38-3.78,1.72l-.63-.91ZM186.1,105.53c-1.8.11-2.77.6-2.75,1.04.03.44,1.06.79,2.85.68,1.81-.11,2.78-.58,2.75-1.02-.03-.43-1.05-.8-2.85-.69Z"/>
    <path class="cls-1" d="M209.04,107.76l-.18,1.04c-.65-.16-4.97-.91-5.69-.99.23-.91,1.34-7.31,1.43-8.24.7.17,4.9.9,5.56.96l-.18,1.04c-.48-.12-2.92-.55-4.41-.79-.12.62-.27,1.48-.43,2.39,1.25.24,3.84.68,4.31.72l-.18,1.03c-.46-.12-3.04-.58-4.3-.77-.19,1.06-.37,2.12-.48,2.84,1.5.28,4.04.71,4.55.76Z"/>
    <path class="cls-1" d="M210.06,109.05c.31-.88,2-7.16,2.18-8.08l1.45.39c.36,1.64,1.76,6.03,2.31,7.75.31-1.16,1.56-6.01,1.68-6.67l1.16.31c-.31.89-2,7.16-2.18,8.08l-1.45-.39-2.31-7.75c-.33,1.24-1.56,6.01-1.69,6.67l-1.16-.31Z"/>
    <path class="cls-1" d="M225.99,109.79c-.8,2.12-2.66,3.5-5.11,2.57l-2.65-1c.4-.85,2.69-6.92,2.96-7.82l2.65,1c2.46.93,2.95,3.15,2.16,5.25ZM221.24,111.38c1.44.54,2.93-.15,3.64-2.02.76-2.01.03-3.32-1.41-3.87l-1.52-.57c-.6,1.53-1.67,4.35-2.23,5.89l1.51.57Z"/>
    <path class="cls-1" d="M230.91,115.65l-.45.94c-.57-.33-4.07-2.01-4.74-2.28.47-.81,3.29-6.66,3.63-7.54l1.08.52c-.39.67-2.38,4.77-3.23,6.61,1.25.62,3.25,1.57,3.7,1.75Z"/>
    <path class="cls-1" d="M236.92,119.1l-.53.91c-.56-.38-4.34-2.59-4.99-2.91.53-.77,3.8-6.38,4.21-7.22.6.41,4.28,2.55,4.87,2.84l-.53.91c-.41-.28-2.54-1.54-3.85-2.28-.33.54-.77,1.29-1.23,2.09,1.09.66,3.36,1.98,3.78,2.18l-.53.9c-.39-.27-2.65-1.6-3.76-2.22-.54.93-1.08,1.85-1.44,2.49,1.3.79,3.54,2.08,3.99,2.3Z"/>
    <path class="cls-1" d="M239.54,118.85c-.62,1.05-.36,2.04.85,2.88.86.61,1.77.64,2.21,0,.37-.53.19-1.16-.83-2.77-.94-1.48-1.55-2.57-.82-3.62.72-1.02,2.17-1.04,3.62-.02,1.31.92,2.04,2.29,1.19,3.71l-1.02-.72c.52-.87.05-1.66-.74-2.22-.94-.66-1.7-.56-2.03-.09-.33.47-.06,1.23.72,2.46,1.19,1.85,1.69,2.86.95,3.92-.83,1.18-2.34,1.23-3.81.2-1.79-1.25-2.24-2.86-1.34-4.46l1.04.73Z"/>
    <path class="cls-1" d="M245.83,123.45c-.71.98-.55,1.99.57,2.95.8.69,1.7.8,2.2.21.42-.49.3-1.13-.56-2.83-.79-1.56-1.3-2.71-.47-3.68.81-.95,2.26-.83,3.61.32,1.21,1.04,1.81,2.48.83,3.8l-.95-.81c.6-.81.21-1.65-.53-2.28-.88-.75-1.64-.72-2.01-.28-.37.44-.18,1.22.49,2.51,1.01,1.95,1.41,3,.57,3.99-.94,1.09-2.45,1-3.81-.16-1.66-1.42-1.96-3.06-.91-4.57l.97.83Z"/>
    <path class="cls-1" d="M260.2,133.05c-1.07.98-2.51,1.01-3.63-.22l-1.76-1.93c-1.18,1.08-2.24,2.06-2.51,2.36l-.83-.9c.74-.58,5.61-5.02,6.25-5.71l2.56,2.8c1.13,1.23.98,2.65-.07,3.61ZM257.13,131.97c.71.78,1.53.86,2.29.17.72-.66.69-1.46-.03-2.24l-1.58-1.74c-.59.53-1.42,1.28-2.27,2.06l1.59,1.75Z"/>
    <path class="cls-1" d="M267.5,138.45c-.78.52-2.62,1.9-3.99,2.93-2.31,1.74-3.96.75-4.98-.61-1.02-1.35-1.52-3.21.79-4.95,1.36-1.03,3.2-2.41,3.91-3.02l.74.99c-.58.38-2.5,1.79-3.65,2.66-.81.61-2.3,1.81-.91,3.66,1.39,1.85,2.96.74,3.77.14,1.15-.87,3.03-2.32,3.56-2.77l.74.99Z"/>
    <path class="cls-1" d="M261.71,144.84c.84-.42,6.39-3.8,7.15-4.35l1.84,3.04c.98,1.62.58,2.83-.4,3.43-.95.58-1.71.11-2.21-.3.27.82.21,1.91-.83,2.54-1.22.74-2.62.48-3.48-.94l-2.08-3.42ZM265.71,143.75l-2.57,1.56,1.3,2.13c.61,1,1.38,1.25,2.22.74.9-.55.94-1.33.21-2.53l-1.16-1.91ZM266.52,143.26l1.16,1.91c.62,1.01,1.24,1.25,1.97.81.52-.32.85-.96.09-2.21l-1.09-1.79-2.12,1.29Z"/>
    <path class="cls-1" d="M269.01,155.92l-.93.46c-.25-.61-1.97-4.09-2.33-4.71.87-.35,6.69-3.23,7.5-3.71l.53,1.08c-.71.29-4.81,2.3-6.61,3.23.61,1.25,1.6,3.24,1.85,3.65Z"/>
    <path class="cls-1" d="M276.65,155.25c-.89.3-6.85,2.86-7.69,3.29l-.48-1.12c.89-.3,6.85-2.86,7.69-3.29l.48,1.12Z"/>
    <path class="cls-1" d="M272.5,159.99c-1.11.5-1.47,1.45-.97,2.84.36,1,1.07,1.54,1.81,1.28.61-.22.83-.83.92-2.74.09-1.75.22-2.99,1.43-3.42,1.18-.42,2.37.4,2.97,2.08.54,1.5.33,3.05-1.17,3.72l-.42-1.18c.92-.41,1-1.33.68-2.24-.39-1.08-1.06-1.44-1.6-1.25-.54.19-.76.97-.83,2.42-.09,2.2-.27,3.31-1.49,3.74-1.36.48-2.62-.35-3.22-2.04-.73-2.06-.17-3.63,1.49-4.41l.43,1.2Z"/>
    <path class="cls-1" d="M281.96,171.99c-.93.16-7.23,1.75-8.12,2.04l-.29-1.16c.44-.07,2.1-.48,3.82-.91-.27-1.13-.87-3.51-1.17-4.63-1.72.43-3.37.86-3.79,1l-.29-1.16c.93-.16,7.23-1.74,8.12-2.04l.29,1.16c-.4.06-1.8.4-3.35.79.27,1.13.87,3.51,1.17,4.63,1.55-.39,2.94-.75,3.33-.89l.29,1.16Z"/>
    <path class="cls-1" d="M282.56,175.5c-.93.09-7.33,1.24-8.24,1.47l-.22-1.21c.93-.09,7.33-1.24,8.24-1.47l.21,1.21Z"/>
    <path class="cls-1" d="M274.66,178.65c.94-.03,7.39-.74,8.31-.91l.16,1.49c-1.4.93-4.98,3.83-6.37,4.97,1.19-.13,6.16-.74,6.82-.86l.13,1.19c-.94.03-7.39.74-8.31.91l-.16-1.49,6.37-4.97c-1.28.14-6.16.74-6.82.86l-.13-1.19Z"/>
    <path class="cls-1" d="M284,190.74c.01,1.87-.83,3.16-2.29,3.63v-1.34c.73-.23,1.28-1.04,1.27-2.25-.01-1.8-1.33-2.83-3.25-2.82-2.27.01-3.27,1.27-3.26,2.86,0,1.51,1.07,2.6,2.53,2.59,0-.38-.01-1.88-.05-2.51h.96c-.04.77-.03,3.05.02,3.53-.82-.07-3.32-.05-4.38.05v-1.1c.59.04,1.13.07,1.5.06-1-.45-1.6-1.44-1.61-2.76-.01-2.31,1.46-3.93,4.25-3.95,2.74-.02,4.29,1.67,4.31,4Z"/>
    <path class="cls-1" d="M272.25,215.72l-.97-.24c.18-.65,1.61-6.49,1.85-7.6.37.11,2.14.55,2.5.61l-.25,1.04c-.22-.07-.96-.26-1.58-.4-.49,1.97-1.45,6.04-1.55,6.59ZM276.93,212.77l.85.21c-.07.17-.44,1.66-.61,2.39l1.07.26c.19-.72.54-2.22.56-2.4l.85.21c-.07.17-.44,1.66-.61,2.38,1.2.28,2.2.51,2.4.55l-.26,1.06c-.56-.19-7.26-1.82-7.84-1.91l.26-1.06c.21.08,1.38.37,2.76.71.19-.72.54-2.22.56-2.4ZM275.59,212.62c.08-.44.99-5.02,1.15-5.82l.88.21c-.07.19-.39,1.7-.69,3.13.68.35,2.31.98,3.27,1.29l-.39,1.03c-.87-.4-2.36-1.06-3.06-1.44-.18.89-.33,1.64-.35,1.79l-.8-.2ZM277.89,208.47c.64.07,1.98.22,2.73.17l-.05,1.12c-.77-.04-2.14-.25-2.81-.37l.14-.93ZM280.28,213.45c.17-.6,1.14-4.59,1.27-5.2l.9.22c-.18.6-1.16,4.59-1.27,5.2l-.9-.22Z"/>
    <path class="cls-1" d="M271.06,226.33c-.28-.15-3.31-1.32-3.62-1.4.26-.5,2.5-6.28,2.64-6.82.29.15,3.32,1.32,3.62,1.4l-.38.98c-.08-.05-.44-.18-.9-.36-.39.93-1.55,3.93-1.89,4.88.46.18.82.32.91.34l-.38.98ZM268.66,224.29c.33.13.7.28,1.09.42.38-.93,1.54-3.93,1.89-4.88-.38-.16-.76-.29-1.08-.42-.5,1.25-1.41,3.6-1.89,4.88ZM277.1,228.67c-.42-.21-5-1.99-5.47-2.12l.38-.98c.43.22,5.02,1.99,5.47,2.12l-.38.98ZM274.72,218.56l1.1-.28c-.14,1.68.68,3.33,1.87,4.07.43-1.12.83-2.15.92-2.41l.86.33c-.26.57-1.98,5.01-2.17,5.6l-.86-.33c.11-.24.48-1.2.89-2.27-.17-.12-.34-.24-.51-.37-1.04.06-2.38.87-3.14,1.81l-.58-.92c.88-.7,1.82-1.35,2.98-1.65-.78-1-1.19-2.28-1.35-3.58Z"/>
    <path class="cls-1" d="M271.23,229.14l-.6,1.24-1.23-.6.6-1.24,1.23.6Z"/>
    <path class="cls-1" d="M269.58,242.52c-.57-.4-8.25-4.99-8.88-5.3l.57-.96c.57.4,8.25,4.99,8.88,5.3l-.57.96ZM267.52,232.42c-.69,1.34-1.57,3.28-1.96,4.31l-.83-.5c.49-1.2,1.65-3.67,2.47-5.29.9.58,4.88,2.96,5.81,3.47-.41.61-2.42,3.99-2.73,4.57l-.86-.51c.27-.41,1.48-2.41,2.19-3.61-1.12-.7-2.99-1.81-4.09-2.44Z"/>
    <path class="cls-1" d="M257.03,249.89c.18-.21.73-.88,1.03-1.26-1.8-1.42-3.53-2.77-3.81-2.96l.69-.88c.52.47,7.54,6.02,8.11,6.41l-.69.88c-.24-.22-1.84-1.5-3.57-2.87-.3.4-.82,1.09-.96,1.32l-.8-.63ZM257.9,245.64l-.17-1.14c1.55-.3,2.99-.26,4.38.19-.78-1.29-1.16-2.72-1.21-4.56l1.23-.11c-.25,2.37.46,4.18,2.33,5.94.73-.92,1.4-1.77,1.56-1.99l.76.6c-.42.46-3.38,4.21-3.73,4.72l-.76-.6c.17-.2.82-1.02,1.54-1.92-.17-.16-.32-.31-.47-.48-1.72-1.04-3.81-1.29-5.46-.65Z"/>
    <path class="cls-1" d="M246.83,254.97l-.7-.72c.51-.46,4.82-4.64,5.62-5.45.25.29,1.83,1.92,2.1,2.16l-.77.74c-.16-.18-.87-.93-1.43-1.49-1.47,1.4-4.43,4.33-4.82,4.75ZM248.75,254.77c.36.44,5.04,5.28,5.48,5.66l-.78.75c-.37-.45-5.05-5.29-5.48-5.66l.78-.75ZM253.59,252.52c1.13-1.09,2.71-1.19,3.85-.02,1.13,1.17.99,2.75-.14,3.84-1.13,1.09-2.72,1.18-3.85.02-1.14-1.17-.99-2.75.14-3.84ZM254.25,253.2c-.67.65-.79,1.65-.04,2.43.75.78,1.75.69,2.43.04.67-.65.79-1.65.04-2.43-.75-.78-1.75-.69-2.43-.04Z"/>
    <path class="cls-1" d="M240.11,258.43c.27.45,1.98,3,2.21,3.3-.93.58-5.08,3.36-5.97,4-.19-.33-1.9-2.88-2.21-3.3l.85-.57.35.3c.61-.38,3.47-2.3,4.07-2.73l-.15-.44.85-.57ZM240,260.12l-4.25,2.85.98,1.46,4.25-2.85-.98-1.46ZM240,271.13c-.23-.43-2.99-4.54-3.29-4.92l.88-.59c.23.43,2.99,4.54,3.3,4.92l-.88.59ZM244.66,261.93c-1.79,1.85-2.15,3.82-1.94,5.07.62-.39,2.89-1.95,3.32-2.27l.55.82c-.47.26-3.8,2.52-4.38,2.93-.96-2.13-.56-4.44,1.37-7.12l1.07.57Z"/>
    <path class="cls-1" d="M228.99,276.87c-.27-.64-4.24-8.67-4.59-9.27l.96-.47c.13.31,1.13,2.36,2.17,4.46.4-.19.94-.45,1.35-.67-.89-1.8-1.75-3.5-1.9-3.76l.91-.45c.25.6,3.79,7.76,4.12,8.32l-.91.45c-.11-.28-.93-1.95-1.81-3.73-.42.2-.96.46-1.36.67.95,1.92,1.85,3.7,2.01,3.97l-.96.47ZM229.49,268.35l.51-.99c1.13.55,2.06,1.19,2.86,2.02-.19-1.26-.14-2.53.13-3.87l1.2.21c-.68,1.82-.49,4.06.36,6,.77-.38,1.47-.73,1.62-.82l.42.85c-.36.15-3.76,1.84-4.1,2.03l-.42-.85c.15-.06.82-.39,1.6-.78l-.21-.5c-.96-1.61-2.43-2.87-3.98-3.3Z"/>
    <path class="cls-1" d="M214.42,272.44l-.33-.95c.59-.18,6.28-2.13,7.28-2.5.1.37.85,2.55.99,2.88l-1.01.35c-.07-.23-.4-1.23-.67-1.99-1.9.64-5.79,2.01-6.27,2.21ZM221.92,272.95c1.36-.47,2.83.07,3.37,1.66.54,1.58-.29,2.9-1.65,3.37-.82.28-1.66.2-2.33-.25-.63.2-2.23.75-3.12,1.07.33.92.58,1.62.65,1.78l-1.03.35c-.14-.56-2.34-6.98-2.58-7.51l1.03-.35c.06.21.39,1.21.79,2.43.97-.32,2.77-.94,3.25-1.13.29-.66.87-1.16,1.61-1.41ZM220.62,277.01c-.13-.2-.25-.42-.33-.68-.11-.33-.17-.65-.17-.95-.75.25-2.02.68-2.77.95l.56,1.62c.74-.24,1.97-.66,2.72-.93ZM222.23,273.84c-.77.26-1.33,1.07-.96,2.14.37,1.07,1.3,1.36,2.07,1.09.77-.26,1.33-1.07.97-2.13-.37-1.08-1.3-1.37-2.08-1.1Z"/>
    <path class="cls-1" d="M196.57,276.29l-.1-1.05c.67-.02,5.03-.44,5.74-.56.02.94.65,7.4.81,8.32-.72.02-4.96.43-5.61.54l-.1-1.05c.49-.01,2.97-.24,4.46-.41-.05-.63-.13-1.49-.22-2.41-1.27.1-3.88.36-4.34.45l-.1-1.04c.47,0,3.09-.25,4.35-.4-.1-1.08-.21-2.14-.29-2.87-1.52.12-4.09.38-4.58.47Z"/>
    <path class="cls-1" d="M188.59,279.58c-.02-2.27,1.21-4.22,3.84-4.25l2.83-.02c-.06.94,0,7.43.07,8.36l-2.83.03c-2.63.02-3.89-1.88-3.91-4.12ZM192.45,276.36c-1.54.01-2.68,1.2-2.66,3.2.02,2.15,1.18,3.11,2.71,3.1h1.62c.01-1.66-.02-4.67-.05-6.31h-1.62Z"/>
    <path class="cls-1" d="M185.48,283.52c.12-.93.49-7.42.47-8.36l1.22.07c-.12.93-.49,7.42-.47,8.36l-1.22-.07Z"/>
    <path class="cls-1" d="M177.8,281.68c.29.07,1.36.2,2.55.34.26-1.95.77-6.52.79-7.29l1.19.14c-.15.76-.68,5.32-.87,7.28,1.18.13,2.25.25,2.56.24l-.12,1.07c-.68-.15-5.52-.7-6.22-.71l.12-1.07Z"/>
    <path class="cls-1" d="M174.87,282.23c.23-.91,1.34-7.31,1.43-8.24l1.21.21c-.23.91-1.34,7.31-1.43,8.24l-1.21-.21Z"/>
    <path class="cls-1" d="M174.59,273.73c-.29.89-1.84,7.2-1.99,8.12l-1.46-.36c-.39-1.63-1.89-5.99-2.49-7.69-.29,1.17-1.42,6.04-1.53,6.7l-1.16-.29c.29-.89,1.84-7.2,1.99-8.12l1.46.36,2.49,7.69c.31-1.25,1.42-6.04,1.53-6.7l1.17.29Z"/>
    <path class="cls-1" d="M160.05,278.38c-1.76-.63-2.68-1.87-2.63-3.4l1.27.45c-.04.78.53,1.57,1.68,1.98,1.69.61,3.12-.28,3.77-2.09.76-2.14-.07-3.51-1.57-4.04-1.42-.51-2.81.12-3.3,1.49.36.13,1.77.63,2.37.81l-.32.9c-.72-.31-2.87-1.08-3.33-1.2.34-.74,1.19-3.11,1.46-4.13l1.04.37c-.25.55-.45,1.05-.58,1.4.77-.78,1.91-1.01,3.15-.57,2.18.78,3.19,2.73,2.25,5.35-.92,2.58-3.04,3.46-5.24,2.67Z"/>
    <path class="cls-1" d="M156.08,272.24l-1.26-.56.56-1.25,1.26.56-.56,1.25Z"/>
    <path class="cls-1" d="M146.92,267.64c1.06-2,3.08-3.13,5.4-1.9l2.5,1.33c-.5.79-3.54,6.52-3.92,7.38l-2.5-1.33c-2.32-1.23-2.53-3.5-1.48-5.48ZM151.85,266.66c-1.36-.72-2.92-.22-3.86,1.55-1.01,1.9-.45,3.29.91,4.01l1.43.76c.79-1.44,2.2-4.1,2.95-5.56l-1.43-.76Z"/>
    <path class="cls-1" d="M142.34,260.93l.58-.88c.54.41,4.2,2.8,4.83,3.15-.57.74-4.12,6.18-4.57,7-.58-.43-4.14-2.76-4.72-3.08l.58-.88c.39.3,2.46,1.67,3.73,2.46.36-.53.83-1.25,1.33-2.02-1.05-.71-3.26-2.14-3.67-2.37l.57-.87c.37.29,2.56,1.73,3.64,2.41.59-.9,1.17-1.8,1.56-2.42-1.26-.85-3.43-2.25-3.87-2.5Z"/>
    <path class="cls-1" d="M139.7,261.05c.67-1.02.46-2.01-.71-2.92-.83-.65-1.73-.72-2.21-.11-.4.51-.25,1.14.69,2.8.87,1.53,1.42,2.64.64,3.66-.77.98-2.22.93-3.62-.16-1.26-.98-1.92-2.39-1.01-3.76l.99.77c-.56.84-.13,1.66.63,2.26.91.71,1.67.65,2.03.19.35-.46.12-1.23-.6-2.49-1.1-1.91-1.55-2.94-.75-3.96.88-1.14,2.4-1.11,3.81-.01,1.72,1.34,2.1,2.97,1.12,4.52l-1-.78Z"/>
    <path class="cls-1" d="M129.68,260.12c.67-.65,4.97-5.52,5.54-6.27l.92.81c-.67.65-4.97,5.52-5.54,6.27l-.92-.81Z"/>
    <path class="cls-1" d="M125.27,256.06c-1.31-1.33-1.6-2.85-.89-4.21l.94.96c-.37.68-.2,1.64.65,2.51,1.26,1.28,2.93,1.1,4.3-.24,1.62-1.59,1.46-3.19.34-4.32-1.06-1.08-2.58-1.12-3.62-.09.27.27,1.32,1.34,1.78,1.76l-.68.67c-.51-.59-2.11-2.21-2.48-2.52.63-.52,2.42-2.28,3.1-3.09l.77.79c-.46.39-.86.75-1.13,1.01,1.03-.37,2.16-.08,3.08.86,1.62,1.65,1.69,3.84-.29,5.79-1.95,1.92-4.24,1.8-5.88.13Z"/>
    <path class="cls-1" d="M127.74,246.36c-.78.53-5.85,4.58-6.54,5.22l-.94-1.17c.68-1.53,2.15-5.9,2.72-7.61-.94.75-4.81,3.92-5.31,4.38l-.75-.94c.78-.53,5.85-4.58,6.54-5.22l.94,1.17-2.72,7.61c1-.8,4.81-3.92,5.31-4.38l.75.94Z"/>
    <path class="cls-1" d="M118.36,237.48c.86-.57.83-1.36.4-2.08-.39-.65-.92-.87-1.49-.74-.43.1-.89.38-1.48.74-.82.5-3.52,2.18-4.22,2.65l-.65-1.08c1.09-.59,3.49-1.98,5.17-2.98,1.51-.89,2.81-.36,3.53.84.84,1.4.58,2.79-.67,3.65l-.6-1Z"/>
    <path class="cls-1" d="M114.77,226.14c-.33.35-.96,1.04-1.66,1.81.36.81,1.22,2.54,1.65,3.33,1.05-.08,1.98-.15,2.46-.2l.56,1.13c-2,.05-8.08.4-9.06.56l-.47-.96c.72-.66,4.71-5.25,5.97-6.8l.55,1.12ZM112.41,228.75l-2.58,2.88c.21,0,2.04-.14,3.87-.27l-1.29-2.61Z"/>
    <path class="cls-1" d="M110.84,219.17l.98-.38c.2.64,1.78,4.73,2.08,5.39-.9.27-6.96,2.61-7.8,3.02-.21-.69-1.75-4.66-2.04-5.26l.99-.38c.14.47,1.03,2.79,1.59,4.18.6-.22,1.4-.53,2.27-.86-.44-1.2-1.4-3.64-1.6-4.07l.97-.38c.14.45,1.07,2.91,1.55,4.08,1.01-.39,2-.77,2.68-1.05-.53-1.43-1.47-3.83-1.68-4.29Z"/>
    <path class="cls-1" d="M110.45,214.25l.34,1.17c-.46.07-2.87.72-3.29.89-.52.54-3.34,3.54-3.94,4.21l-.39-1.34c.37-.31,2.12-2.04,3.11-3.1-1.38-.36-3.72-.89-4.28-.91l-.39-1.34c.86.25,4.86,1.26,5.58,1.43.45-.08,2.83-.84,3.25-1.02Z"/>
    <path class="cls-1" d="M107.28,205.14l1.04-.21c.09.67.95,4.96,1.14,5.66-.93.11-7.29,1.4-8.2,1.66-.1-.71-.94-4.89-1.12-5.53l1.04-.21c.06.49.54,2.93.86,4.39.63-.11,1.47-.29,2.38-.47-.23-1.25-.76-3.82-.89-4.28l1.02-.21c.06.47.57,3.04.84,4.29,1.06-.21,2.11-.42,2.82-.58-.28-1.5-.8-4.03-.94-4.51Z"/>
    <path class="cls-1" d="M99.23,200.8c-.24-2.28,1.2-4.49,3.84-4.77,2.66-.28,4.52,1.54,4.75,3.82.24,2.28-1.2,4.49-3.86,4.77-2.65.28-4.5-1.54-4.74-3.82ZM106.73,199.98c-.19-1.85-1.64-2.93-3.53-2.73-1.87.2-3.07,1.57-2.88,3.42.19,1.85,1.64,2.93,3.52,2.73,1.89-.2,3.08-1.58,2.89-3.43Z"/>
    <path class="cls-1" d="M107.23,194.33c-.94-.08-7.43-.1-8.37-.03v-1.5c1.5-.76,5.38-3.25,6.89-4.23-1.2,0-6.2.04-6.88.09v-1.2c.94.07,7.43.09,8.37.03v1.5s-6.9,4.23-6.9,4.23c1.29,0,6.21-.04,6.88-.09v1.2Z"/>
    <path class="cls-1" d="M108.39,177.01c-.56.25-3.52,1.66-4.77,2.27l1.17,1.59c1.4.2,2.63.35,3,.38l-.16,1.16c-.92-.2-7.34-1.11-8.28-1.17l.16-1.16c.44.1,2.14.35,3.9.6-.82-1.28-2.77-3.86-3.34-4.38l.22-1.58,2.68,3.67c1.3-.57,4.86-2.4,5.63-2.89l-.21,1.51Z"/>
    <path class="cls-1" d="M100.93,171.69c.9.26,7.26,1.58,8.19,1.71l-.25,1.2c-.9-.26-7.26-1.58-8.19-1.71l.25-1.2Z"/>
    <path class="cls-1" d="M109.37,171.72c-.88-.33-7.1-2.17-8.02-2.36l.53-1.79c1.1,0,6.14-.52,7.49-.66-1.05-.86-5.02-4.04-5.95-4.54l.52-1.77c.88.33,7.1,2.17,8.02,2.36l-.34,1.15c-.85-.3-5.71-1.8-6.85-2.13l6.05,4.85-.29.98-7.73.85c1.14.34,6.04,1.71,6.91,1.92l-.34,1.15Z"/>
  </g>
  <g>
    <path class="cls-1" d="M186.3,266.23c-1.82-.12-3-1.08-3.37-2.71l1.33.09c.23.86.83,1.51,2.12,1.59,1.74.11,2.79-1.14,2.92-3.07.12-1.81-.82-3.31-2.6-3.43-1.34-.09-1.96.57-2.29,1.34l-1.32-.08c.44-1.52,1.94-2.41,3.62-2.3,2.38.16,3.98,1.92,3.81,4.54-.17,2.63-2.03,4.17-4.22,4.03Z"/>
    <path class="cls-1" d="M176.63,264.97c-2.25-.45-3.94-2.47-3.42-5.09.52-2.62,2.81-3.86,5.06-3.41s3.94,2.47,3.41,5.1c-.52,2.61-2.81,3.85-5.06,3.4ZM178.07,257.56c-1.82-.36-3.29.7-3.66,2.56-.37,1.85.6,3.4,2.42,3.76,1.83.36,3.29-.7,3.66-2.55.37-1.86-.59-3.41-2.42-3.78Z"/>
    <path class="cls-1" d="M172.87,255.39c-.37.86-2.49,7-2.73,7.91l-1.42-.49c-.24-1.66-1.33-6.14-1.77-7.89-.39,1.13-1.97,5.88-2.14,6.53l-1.13-.39c.37-.86,2.49-7,2.73-7.91l1.42.49,1.77,7.89c.42-1.21,1.97-5.88,2.14-6.53l1.13.39Z"/>
    <path class="cls-1" d="M156.64,256.6c.26.16,1.22.64,2.29,1.15.88-1.76,2.86-5.91,3.14-6.63l1.08.52c-.39.67-2.38,4.81-3.2,6.6,1.07.51,2.05.97,2.34,1.07l-.47.97c-.6-.37-4.99-2.47-5.65-2.71l.47-.97Z"/>
    <path class="cls-1" d="M154.49,246.83c-.09.48-.25,1.39-.43,2.42.74.49,2.39,1.5,3.18,1.93.84-.62,1.59-1.18,1.97-1.48l1.08.65c-1.66,1.11-6.61,4.66-7.35,5.32l-.91-.55c.25-.94,1.17-6.96,1.4-8.94l1.07.65ZM153.88,250.29l-.63,3.81c.17-.12,1.65-1.21,3.12-2.3l-2.49-1.52Z"/>
    <path class="cls-1" d="M145.03,250.38c-1.44-1.12-1.86-2.59-1.26-4.14l1.05.82c-.29.84-.17,1.71.85,2.51,1.37,1.07,2.95.63,4.14-.89,1.12-1.43,1.19-3.2-.22-4.3-1.06-.83-1.94-.63-2.65-.18l-1.04-.81c1.22-1.01,2.96-.9,4.29.14,1.88,1.47,2.2,3.83.58,5.9-1.63,2.08-4.03,2.31-5.76.95Z"/>
    <path class="cls-1" d="M137.44,241.89c.19.24.95,1,1.8,1.83,1.4-1.38,4.61-4.67,5.11-5.26l.86.84c-.58.51-3.8,3.78-5.16,5.21.85.83,1.63,1.58,1.87,1.76l-.76.77c-.45-.54-3.93-3.95-4.47-4.38l.76-.77Z"/>
    <path class="cls-1" d="M132.76,237.97c-1.4-1.74-1.63-4.11.27-5.65,1.65-1.33,3.38-1.09,4.05-.25.41.5.31,1.13-.06,1.51.5-.11,1.33.07,1.83.68.79.98.33,2.04-.54,2.75-1.03.83-2.65,1.05-3.6-.13-.39-.49-.52-1.24-.13-1.84l-.83.39-.54-.67c.75-.23,2.5-1.09,2.96-1.46.41-.33.44-.58.23-.85-.4-.5-1.63-.41-2.82.54-1.5,1.21-1.34,3.02-.21,4.42,1.23,1.52,3.62,2.38,5.76.66,1.87-1.51,1.9-3.34.42-5.18-.54-.66-1.09-1.11-1.7-1.4l.67-.54c.6.33,1.17.78,1.7,1.45,1.69,2.09,1.8,4.49-.57,6.41-2.49,2-5.35,1.07-6.9-.85ZM138.16,234.64c-.59-.73-1.84-.41-2.58.18-.53.43-.73.97-.31,1.49.45.55,1.43.79,2.54-.1.62-.5.72-1.11.35-1.58Z"/>
    <path class="cls-1" d="M133.78,229.14c.85-.59.82-1.37.37-2.08-.4-.64-.93-.86-1.5-.72-.43.11-.88.4-1.47.76-.82.51-3.49,2.23-4.19,2.7l-.67-1.07c1.08-.6,3.46-2.03,5.13-3.05,1.5-.92,2.8-.4,3.54.79.86,1.39.62,2.78-.62,3.66l-.62-.99Z"/>
    <path class="cls-1" d="M130.17,217.79c-.34.35-.97,1.03-1.67,1.8.36.82,1.2,2.55,1.62,3.35,1.05-.07,1.98-.13,2.46-.18l.55,1.13c-2,.03-8.08.33-9.06.49l-.47-.96c.72-.66,4.75-5.21,6.02-6.75l.54,1.12ZM127.78,220.38l-2.6,2.86c.21,0,2.04-.12,3.87-.24l-1.27-2.62Z"/>
    <path class="cls-1" d="M126.44,210.71l1-.35c.18.65,1.63,4.79,1.91,5.45-.91.24-7.04,2.39-7.9,2.77-.19-.7-1.6-4.72-1.87-5.33l1-.35c.13.48.94,2.83,1.46,4.24.61-.2,1.42-.48,2.29-.79-.4-1.21-1.28-3.69-1.47-4.12l.99-.35c.12.45.98,2.94,1.42,4.13,1.02-.36,2.03-.71,2.71-.96-.48-1.45-1.35-3.88-1.55-4.34Z"/>
    <path class="cls-1" d="M126.32,205.75l.28,1.19c-.46.04-2.9.56-3.34.7-.55.51-3.54,3.35-4.17,3.99l-.31-1.36c.39-.29,2.23-1.92,3.28-2.92-1.36-.44-3.67-1.1-4.22-1.15l-.32-1.36c.85.3,4.78,1.53,5.5,1.74.46-.06,2.88-.68,3.31-.84Z"/>
    <path class="cls-1" d="M123.81,196.46l1.05-.13c.03.67.56,5.02.7,5.73-.94.04-7.38.83-8.3,1.01-.04-.72-.55-4.95-.68-5.6l1.05-.13c.02.49.31,2.96.52,4.44.63-.07,1.49-.17,2.41-.28-.13-1.27-.46-3.87-.55-4.33l1.04-.13c.02.47.33,3.08.5,4.34,1.07-.13,2.13-.26,2.86-.36-.16-1.51-.48-4.07-.58-4.57Z"/>
    <path class="cls-1" d="M116.23,191.42c-.03-2.29,1.59-4.37,4.26-4.4,2.67-.04,4.36,1.94,4.39,4.23.03,2.29-1.59,4.37-4.27,4.4-2.66.04-4.35-1.94-4.38-4.23ZM123.77,191.27c-.03-1.86-1.38-3.06-3.27-3.04-1.88.03-3.2,1.29-3.17,3.15.03,1.86,1.38,3.06,3.26,3.04,1.89-.03,3.21-1.29,3.18-3.15Z"/>
    <path class="cls-1" d="M124.87,185.7c-.92-.2-7.36-1.05-8.29-1.11l.2-1.49c1.58-.57,5.75-2.53,7.38-3.3-1.19-.16-6.16-.76-6.83-.8l.16-1.19c.92.2,7.35,1.05,8.29,1.11l-.2,1.49-7.38,3.3c1.27.17,6.16.76,6.83.8l-.16,1.19Z"/>
    <path class="cls-1" d="M127.51,171.99c-.58.18-3.69,1.24-5,1.71l.98,1.72c1.37.36,2.57.65,2.94.72l-.3,1.14c-.89-.31-7.16-1.95-8.09-2.12l.3-1.14c.42.15,2.09.6,3.81,1.05-.67-1.37-2.31-4.15-2.81-4.74l.4-1.54,2.24,3.96c1.36-.41,5.1-1.83,5.92-2.22l-.38,1.47Z"/>
    <path class="cls-1" d="M120.8,165.75c.86.38,6.99,2.53,7.89,2.77l-.41,1.16c-.86-.38-6.99-2.53-7.9-2.77l.41-1.16Z"/>
    <path class="cls-1" d="M129.16,166.87c-.82-.47-6.69-3.25-7.56-3.58l.8-1.69c1.09.17,6.15.44,7.5.51-.9-1.01-4.34-4.78-5.18-5.42l.79-1.67c.82.47,6.69,3.25,7.56,3.58l-.51,1.08c-.79-.43-5.37-2.66-6.44-3.17l5.23,5.73-.44.92-7.77-.36c1.07.51,5.7,2.63,6.54,2.98l-.51,1.08Z"/>
    <path class="cls-1" d="M132.84,156.5l.73-1.18,1.18.73-.73,1.18-1.18-.73Z"/>
    <path class="cls-1" d="M139.11,149.8c-.61-.05-3.88-.21-5.27-.27l.27,1.96c1.14.84,2.15,1.55,2.46,1.76l-.7.95c-.71-.61-5.93-4.46-6.73-4.96l.7-.95c.34.29,1.72,1.33,3.15,2.38-.12-1.52-.61-4.71-.86-5.45l.95-1.28.61,4.51c1.42.12,5.42.19,6.33.13l-.9,1.23Z"/>
    <path class="cls-1" d="M144.43,143.84c-.42-.1-2.86-.63-4.08-.87l-1.56,1.67c1.2,1.12,2.31,2.15,2.65,2.41l-.84.89c-.63-.69-5.36-5.11-6.09-5.7l2.59-2.77c1.14-1.22,2.57-1.18,3.52-.3.8.75,1.04,1.86.44,2.91,1.22.26,3.81.74,4.32.76l-.93,1ZM136.02,142.03c.53.51,1.28,1.21,2.05,1.94l1.62-1.73c.72-.77.74-1.6.08-2.21-.62-.58-1.42-.49-2.14.28l-1.61,1.72Z"/>
  </g>
  <g>
    <path class="cls-1" d="M147.15,229.86c-1.48-1.67-1.83-4.02,0-5.65,1.59-1.41,3.32-1.25,4.04-.44.43.48.37,1.12.01,1.51.49-.13,1.33,0,1.86.59.84.94.43,2.02-.41,2.77-.99.88-2.6,1.17-3.61.04-.41-.47-.58-1.22-.21-1.83l-.81.43-.57-.65c.74-.27,2.44-1.21,2.88-1.6.39-.35.41-.6.19-.86-.42-.48-1.65-.34-2.79.68-1.44,1.28-1.19,3.08,0,4.43,1.3,1.46,3.73,2.21,5.78.38,1.79-1.59,1.74-3.42.17-5.19-.57-.64-1.14-1.05-1.77-1.32l.65-.57c.62.3,1.21.73,1.77,1.36,1.79,2.01,2.02,4.4-.26,6.43-2.39,2.12-5.29,1.33-6.93-.52ZM152.38,226.28c-.62-.7-1.86-.32-2.57.31-.51.46-.68,1.01-.24,1.51.47.53,1.47.72,2.53-.22.59-.53.67-1.14.27-1.59Z"/>
    <path class="cls-1" d="M147.83,220.94c.85-.59.8-1.38.36-2.09-.4-.64-.94-.85-1.5-.71-.42.11-.88.4-1.46.77-.81.51-3.47,2.26-4.16,2.74l-.68-1.06c1.08-.61,3.45-2.06,5.1-3.09,1.49-.93,2.8-.42,3.55.76.87,1.38.64,2.78-.59,3.67l-.62-.98Z"/>
    <path class="cls-1" d="M144.34,209.59c-.34.34-.99,1.01-1.72,1.76.34.82,1.14,2.58,1.54,3.39,1.05-.04,1.98-.08,2.47-.12l.52,1.15c-2-.01-8.09.13-9.08.26l-.44-.97c.74-.64,4.88-5.1,6.19-6.6l.52,1.14ZM141.89,212.12l-2.67,2.8c.21,0,2.04-.07,3.88-.14l-1.21-2.66Z"/>
    <path class="cls-1" d="M141.03,202.4l1.02-.29c.14.66,1.34,4.87,1.58,5.55-.92.19-7.17,1.97-8.05,2.29-.15-.71-1.32-4.8-1.54-5.43l1.02-.29c.1.48.77,2.88,1.2,4.31.62-.16,1.45-.4,2.34-.65-.33-1.23-1.06-3.76-1.22-4.2l1-.29c.09.46.8,2.99,1.17,4.21,1.04-.3,2.07-.59,2.77-.8-.39-1.47-1.11-3.95-1.29-4.43Z"/>
    <path class="cls-1" d="M141.35,197.51l.17,1.21c-.46,0-2.94.3-3.38.4-.59.46-3.82,3.01-4.51,3.59l-.19-1.38c.41-.25,2.39-1.71,3.53-2.61-1.31-.56-3.55-1.42-4.1-1.53l-.19-1.38c.81.37,4.62,1.95,5.31,2.23.46-.01,2.92-.42,3.37-.54Z"/>
    <path class="cls-1" d="M139.9,188.04h1.06c-.05.67-.05,5.05,0,5.78-.94-.07-7.43-.08-8.37,0,.05-.72.05-4.98,0-5.64h1.06c-.04.49-.05,2.98-.03,4.48.64.01,1.5.01,2.42.02.03-1.27.02-3.9-.02-4.37h1.04c-.04.47-.05,3.1-.03,4.37,1.08,0,2.15,0,2.88,0,.03-1.53.02-4.11-.02-4.61Z"/>
    <path class="cls-1" d="M133.2,181.74c.37-2.26,2.33-4.02,4.96-3.6,2.64.43,3.96,2.67,3.59,4.93-.37,2.26-2.33,4.02-4.97,3.6-2.63-.43-3.95-2.67-3.58-4.93ZM140.66,182.91c.3-1.84-.82-3.26-2.69-3.56-1.86-.3-3.38.72-3.67,2.56-.3,1.84.82,3.26,2.68,3.56,1.87.3,3.39-.72,3.68-2.55Z"/>
    <path class="cls-1" d="M142.65,177.74c-.86-.38-6.99-2.52-7.9-2.76l.5-1.42c1.66-.23,6.14-1.31,7.89-1.74-1.13-.4-5.88-1.99-6.53-2.17l.4-1.13c.86.38,6.99,2.52,7.9,2.76l-.5,1.42-7.89,1.74c1.21.42,5.88,1.99,6.53,2.17l-.4,1.13Z"/>
    <path class="cls-1" d="M148.18,165.03c-.61.04-3.88.33-5.26.46l.54,1.9c1.25.68,2.34,1.24,2.68,1.4l-.56,1.03c-.79-.51-6.5-3.61-7.36-3.99l.56-1.03c.37.24,1.89,1.08,3.45,1.93-.33-1.49-1.25-4.59-1.6-5.28l.76-1.4,1.23,4.38c1.42-.08,5.4-.56,6.29-.74l-.73,1.34Z"/>
    <path class="cls-1" d="M143.33,157.29c.73.59,6.07,4.29,6.88,4.76l-.7,1.01c-.73-.59-6.07-4.28-6.88-4.76l.7-1.01Z"/>
    <path class="cls-1" d="M151.02,160.62c-.64-.68-5.45-5.05-6.19-5.62l1.26-1.39c.99.48,5.75,2.21,7.02,2.67-.57-1.23-2.76-5.83-3.38-6.68l1.24-1.37c.64.68,5.45,5.05,6.19,5.62l-.81.89c-.63-.64-4.36-4.1-5.24-4.9l3.33,7-.69.75-7.33-2.6c.88.8,4.68,4.17,5.38,4.74l-.81.89Z"/>
    <path class="cls-1" d="M157.61,151.86l1.07-.89.88,1.07-1.07.89-.88-1.07Z"/>
    <path class="cls-1" d="M165.73,147.68c-.55-.25-3.57-1.54-4.86-2.08l-.42,1.93c.78,1.18,1.48,2.2,1.7,2.5l-.98.65c-.46-.82-4.02-6.25-4.6-6.99l.98-.65c.21.39,1.15,1.84,2.13,3.33.42-1.47,1.06-4.63,1.08-5.41l1.33-.88-.99,4.44c1.29.6,5.02,2.06,5.89,2.32l-1.27.84Z"/>
    <path class="cls-1" d="M172.81,144.21c-.35-.25-2.4-1.68-3.43-2.37l-2.08.94c.68,1.5,1.32,2.87,1.52,3.23l-1.11.51c-.32-.88-3-6.77-3.45-7.59l3.45-1.57c1.52-.69,2.82-.11,3.36,1.07.45.99.25,2.11-.71,2.85,1.03.7,3.24,2.14,3.69,2.35l-1.24.57ZM165.74,139.33c.29.67.72,1.61,1.16,2.57l2.15-.98c.96-.44,1.29-1.19.92-2.01-.35-.78-1.12-.99-2.08-.56l-2.14.97Z"/>
  </g>
  <g>
    <path class="cls-1" d="M161.24,212.83c.84-.6.79-1.38.34-2.09-.41-.63-.95-.85-1.51-.7-.42.12-.88.41-1.45.78-.81.52-3.45,2.28-4.14,2.77l-.68-1.06c1.07-.62,3.43-2.08,5.08-3.13,1.48-.94,2.79-.45,3.56.73.88,1.37.66,2.77-.56,3.67l-.63-.98Z"/>
    <path class="cls-1" d="M158.05,201.5c-.36.33-1.04.96-1.8,1.67.3.84,1.01,2.63,1.38,3.46,1.05,0,1.98.01,2.47,0l.47,1.17c-1.99-.11-8.09-.25-9.07-.17l-.39-.99c.77-.6,5.12-4.86,6.5-6.29l.46,1.16ZM155.48,203.91l-2.8,2.67c.21,0,2.04.03,3.88.04l-1.08-2.71Z"/>
    <path class="cls-1" d="M155.55,194.13l1.04-.17c.06.67.78,4.99.95,5.69-.93.08-7.34,1.15-8.25,1.38-.07-.72-.77-4.92-.93-5.56l1.04-.17c.04.49.44,2.94.71,4.42.63-.09,1.48-.23,2.39-.39-.18-1.26-.63-3.85-.74-4.3l1.03-.17c.04.47.46,3.06.7,4.31,1.07-.18,2.12-.35,2.84-.49-.23-1.51-.66-4.05-.78-4.54Z"/>
    <path class="cls-1" d="M156.66,189.42l-.04,1.22c-.45-.08-2.95-.21-3.41-.19-.66.35-4.28,2.31-5.06,2.77l.05-1.39c.45-.18,2.65-1.28,3.92-1.97-1.2-.77-3.26-2.01-3.78-2.21l.05-1.39c.74.51,4.22,2.72,4.85,3.11.46.06,2.95.09,3.41.05Z"/>
    <path class="cls-1" d="M157.23,179.99l1.03.24c-.2.64-1.21,4.91-1.33,5.62-.9-.28-7.22-1.77-8.15-1.92.21-.69,1.19-4.84,1.29-5.49l1.03.24c-.15.47-.73,2.89-1.05,4.35.62.16,1.46.36,2.36.57.32-1.23.91-3.8.98-4.26l1.02.24c-.14.45-.76,3-1.03,4.25,1.05.25,2.09.49,2.81.65.37-1.48.95-4,1.03-4.49Z"/>
    <path class="cls-1" d="M152.57,172.07c1.01-2.06,3.4-3.17,5.79-1.99,2.4,1.18,3,3.71,1.99,5.76-1.01,2.06-3.4,3.17-5.8,1.99-2.39-1.18-2.99-3.7-1.98-5.76ZM159.35,175.37c.82-1.67.17-3.35-1.53-4.19-1.69-.83-3.44-.3-4.26,1.37-.82,1.67-.17,3.35,1.52,4.19,1.7.84,3.45.31,4.27-1.36Z"/>
    <path class="cls-1" d="M162.76,171.17c-.66-.67-5.59-4.9-6.34-5.45l.98-1.14c1.63.39,6.2,1.02,7.98,1.26-.91-.78-4.74-4-5.28-4.4l.78-.91c.66.67,5.59,4.9,6.34,5.45l-.98,1.14-7.98-1.26c.97.84,4.74,4,5.29,4.4l-.78.91Z"/>
    <path class="cls-1" d="M172.66,161.83c-.57-.22-3.64-1.36-4.95-1.83l-.33,1.95c.84,1.14,1.59,2.12,1.83,2.41l-.95.69c-.5-.8-4.33-6.03-4.94-6.74l.95-.69c.23.38,1.25,1.78,2.29,3.21.34-1.48.82-4.68.81-5.45l1.29-.94-.76,4.48c1.32.54,5.11,1.8,6,2.01l-1.23.9Z"/>
    <path class="cls-1" d="M171.87,152.73c.37.86,3.4,6.61,3.9,7.4l-1.08.57c-.37-.86-3.4-6.61-3.9-7.4l1.08-.57Z"/>
    <path class="cls-1" d="M177.01,159.21c-.2-.92-2.07-7.14-2.41-8.01l1.79-.54c.6.92,3.79,4.86,4.65,5.91.15-1.35.64-6.42.55-7.47l1.77-.53c.2.92,2.07,7.14,2.41,8.01l-1.15.34c-.21-.87-1.62-5.77-1.96-6.9l-.75,7.72-.98.29-4.94-6.01c.34,1.14,1.87,6,2.17,6.84l-1.15.35Z"/>
    <path class="cls-1" d="M187.15,155.26l1.39-.12.12,1.39-1.39.12-.12-1.39Z"/>
    <path class="cls-1" d="M196.08,156.66c-.29-.54-1.92-3.39-2.62-4.59l-1.5,1.29c-.09,1.41-.15,2.65-.15,3.02l-1.17-.08c.13-.93.56-7.41.55-8.35l1.17.08c-.07.44-.19,2.17-.31,3.94,1.22-.92,3.64-3.06,4.13-3.66l1.59.11-3.47,2.95c.66,1.26,2.76,4.67,3.3,5.4l-1.52-.1Z"/>
    <path class="cls-1" d="M203.6,158.52c-.1-.42-.72-2.84-1.06-4.04l-2.19-.64c-.46,1.58-.87,3.04-.95,3.45l-1.18-.34c.33-.88,2.14-7.09,2.33-8.01l3.64,1.06c1.6.47,2.21,1.76,1.85,3-.31,1.05-1.19,1.77-2.4,1.71.32,1.21,1.07,3.74,1.27,4.2l-1.32-.38ZM201.42,150.2c-.22.7-.5,1.69-.8,2.71l2.27.66c1.01.29,1.76-.06,2.01-.93.24-.82-.21-1.49-1.22-1.78l-2.26-.66Z"/>
  </g>
</svg>