<?xml version="1.0" encoding="UTF-8"?>
<svg id="_레이어_2" xmlns="http://www.w3.org/2000/svg" xmlns:xlink="http://www.w3.org/1999/xlink" version="1.1" viewBox="0 0 278.6 279.2">
  <!-- Generator: Adobe Illustrator 29.3.1, SVG Export Plug-In . SVG Version: 2.1.0 Build 151)  -->
  <defs>
    <style>
      .st0, .st1 {
        fill: none;
      }

      .st2 {
        clip-path: url(#clippath-1);
      }

      .st3 {
        clip-path: url(#clippath-3);
      }

      .st4 {
        clip-path: url(#clippath-2);
      }

      .st5 {
        fill: #231815;
      }

      .st1 {
        stroke: #211815;
        stroke-miterlimit: 10;
        stroke-width: .5px;
      }

      .st6 {
        clip-path: url(#clippath);
      }
    </style>
    <clipPath id="clippath">
      <rect class="st0" x="-2.7" y="-2.4" width="284" height="284"/>
    </clipPath>
    <clipPath id="clippath-1">
      <rect class="st0" x="-2.7" y="-2.4" width="284" height="284"/>
    </clipPath>
    <clipPath id="clippath-2">
      <rect class="st0" x="-2.7" y="-2.4" width="284" height="284"/>
    </clipPath>
    <clipPath id="clippath-3">
      <rect class="st0" x="-2.7" y="-2.4" width="284" height="284"/>
    </clipPath>
  </defs>
  <g id="_레이어_1-2">
    <path class="st1" d="M137.9,39.7c-55.7,0-100.9,45.2-100.9,100.9s45.2,100.9,100.9,100.9,100.9-45.2,100.9-100.9-45.2-100.9-100.9-100.9M104.8,56.1c-9.8,10.7-17.6,26.1-22.4,44.1h-25.9c10-20.1,27.2-35.9,48.3-44.2M47,140.6c0-10.6,2-20.8,5.4-30.3h27.8c-1.8,9.6-2.9,19.7-2.9,30.3s1.1,20.7,2.9,30.3h-27.8c-3.4-9.5-5.4-19.6-5.4-30.3M56.5,181h25.9c4.8,18.1,12.5,33.5,22.4,44.1-21-8.2-38.2-24.1-48.3-44.1M132.8,231c-17.3-3.2-32.3-23-40-50h40v50ZM132.8,170.9h-42.4c-1.9-9.5-3.1-19.7-3.1-30.3s1.1-20.8,3.1-30.3h42.4v60.6h0ZM132.8,100.3h-40c7.7-27,22.7-46.7,40-50v50ZM219.1,100.3h-25.9c-4.8-18.1-12.5-33.5-22.4-44.2,21,8.2,38.2,24.1,48.3,44.2M142.9,50.3c17.3,3.2,32.3,23,40,50h-40v-50h0ZM142.9,110.4h42.4c1.9,9.5,3.1,19.7,3.1,30.3s-1.1,20.8-3.1,30.3h-42.4v-60.6h0ZM142.9,231v-50h40c-7.7,27-22.7,46.7-40,50M170.9,225.1c9.8-10.7,17.6-26.1,22.4-44.1h25.9c-10,20.1-27.2,35.9-48.3,44.1M195.5,170.9c1.8-9.6,2.9-19.7,2.9-30.3s-1.1-20.7-2.9-30.3h27.8c3.4,9.5,5.4,19.6,5.4,30.3s-2,20.8-5.4,30.3h-27.8,0Z"/>
  </g>
  <path class="st5" d="M80.6,29.3c-1.5.9-10.3,6-11.9,6.9-.6-1.4-4.7-8.7-5.5-10,1.6-.8,9.7-5.3,11.1-6.1l1,1.9c-1.1.5-6.1,3.3-8.9,4.8.3.7.8,1.4,1.2,2.2,2.2-1.2,7.7-4.3,8.8-5l1,1.7c-1.1.6-6.7,3.7-8.9,4.9.5.9,1,1.8,1.4,2.4,2.9-1.7,8.5-5,9.7-5.7l1,1.8ZM78,42.3c4-2.2,12.3-6.8,14.1-7.8l1,1.9c-2.3,1.2-14.3,7.8-16.3,9-.5-1.1-2.4-4.5-3-5.4,1.7-.9,9.5-5.1,13.3-7.3l-1-1.7c-3.9,2.1-11.6,6.4-13.3,7.4l-1-1.8c2.1-1,13.4-7.3,15.5-8.5.4.8,2.3,4.3,2.9,5.2-1.7.9-9.6,5.1-13.3,7.3l1,1.8ZM86.7,18.6l1.1,2.1c-.6.3-2.5,1.3-3.5,1.9,1.1,2,2.1,3.8,2.4,4.1l-2.2,1.2c-.4-1-5.7-10.6-6.3-11.5l2.2-1.2c.2.5,1.5,2.9,2.9,5.4,1-.6,2.8-1.7,3.4-2.1Z"/>
  <path class="st5" d="M94.7,26.3l-.8-2.3,11.9-3.9.8,2.3-11.9,3.9Z"/>
  <g class="st6">
    <path class="st5" d="M109.9,17.8c3.3-1.2,6.1-4,6.7-6.4-2.9.4-5.6.8-6.2.9l-.3-2.1c1.5-.1,13.1-1.7,14.5-1.9l.3,2.1c-.6,0-3,.3-5.8.7,0,.3-.1.6-.3.9,2,1.6,4.8,2.7,7.2,2.8l-1,2.3c-2.3-.6-4.8-1.6-7-3.3-1.3,2.3-3.5,4.1-6.4,5.9l-1.8-2ZM119.7,17.1c0,.6.4,3.2.6,4.7,2.8-.5,5.5-1,7.4-1.4l.3,2.1c-4.1.9-12.7,2.4-17.2,3.1l-.5-2.2c1.8-.2,4.7-.6,7.6-1.1-.2-1.5-.5-4.2-.7-4.8l2.5-.3ZM121.6,6.8c-1.2.1-7.8,1-9,1.2l-.3-2.1c1.2,0,7.8-1,9-1.2l.3,2.1ZM130.1,2.2c.1,1.7,2.9,22.9,3.3,24.5l-2.6.4c-.1-1.7-2.9-22.9-3.3-24.5l2.6-.4Z"/>
    <path class="st5" d="M149.5,17.2c-1.7-1.8-3.2-3.8-4.2-6.1-1.6,2.5-3.9,4.5-6.6,6.1l-1.5-2.3c4.1-1.3,6.8-4.9,7.6-8.5-2.5-.2-4.9-.4-5.5-.4l.2-2.2c1.5.2,11.7,1.1,13.2,1.1l-.2,2.2c-.6,0-2.9-.3-5.3-.5-.1.6-.3,1.2-.5,1.8.6,2.7,2.7,5.7,4.8,7.1l-2,1.7ZM141.8,19c1.9.3,16,1.4,17.8,1.5-.2,1.2-.6,6.6-.6,7.7l-2.7-.2c.2-1,.6-4.8.6-5.5-1,0-14.2-1.1-15.3-1.1l.2-2.4ZM161,3.5c-.2,1.2-1.3,14.2-1.3,15.4l-2.5-.2c0-.5.4-3.3.6-6.3-2-.2-6.5-.5-7.1-.5l.2-2.2c.6.1,5.1.5,7.1.6.3-3.3.5-6.5.5-7l2.5.2Z"/>
  </g>
  <path class="st5" d="M172.5,25.7c2.7.8,5.3,1.4,7.1,1.9l-.6,1.9c-4.1-1-12.5-3.4-16.6-4.6l.5-2.1c1.6.5,4.3,1.4,7.2,2.2l.8-2.4c-3-1.2-4.6-3.2-3.9-5.4.7-2.4,3.8-3,7.5-1.8,3.7,1.2,5.8,3.4,5,5.7-.7,2.2-3.1,2.9-6.3,2.2l-.7,2.4ZM182.4,16.4c-1-.4-14-4.5-15-4.8l.6-1.9c1,.4,14,4.5,15,4.8l-.6,1.9ZM172.7,21.2c2.4.8,4.1.5,4.5-.8.4-1.3-.8-2.5-3.2-3.3-2.4-.8-4-.4-4.4.9-.4,1.3.7,2.5,3.1,3.2ZM180.6,12c-1.2-.4-7.5-2.5-8.7-2.8l.6-2c1.1.4,7.5,2.5,8.7,2.8l-.6,2ZM189.4,25.6c-.6-.2-2.6-.9-3.7-1.2-1.6,5.1-3.1,10-3.3,10.7l-2.5-.8c.6-1.6,7.1-21.9,7.5-23.6l2.5.8c-.3.7-1.9,5.6-3.5,10.7,1.2.3,3.1.9,3.8,1l-.7,2.3Z"/>
  <path class="st5" d="M205.5,36.9c-3.8-1.9-11.5-6.1-15.4-8.3l.9-1.9c1.6,1,4.2,2.5,6.9,4l1.7-2.9c-1.9-1-3.7-2.1-5.1-2.8,1.3-2,3.3-5.3,4.4-7.3,1.5,1,10.2,6.2,11.6,7l-1.1,1.8c-1-.7-6.4-3.9-9.4-5.7-.8,1.2-1.5,2.6-2.3,3.8,3,1.7,7.6,4.3,9.8,5.4l-1,1.7-4.8-2.7c-.5.8-1.2,2-1.7,2.8,2.4,1.3,4.8,2.6,6.5,3.4l-1,1.7ZM206.9,45.4l-1.2,2c-1.3-.8-13.2-8-15.4-9.2h0c.5-.8,3.1-5.1,3.5-5.8l2.1,1.3c-.3.5-1.5,2.4-2.4,3.9,4,2.4,12.3,7.3,13.4,7.9ZM205.7,40.8c.8-1.1,8.9-14.6,9.5-15.8l2.2,1.3c-.8,1.1-8.9,14.6-9.5,15.8l-2.2-1.3Z"/>
  <path class="st5" d="M234.7,65.1c-.6.4-5.2,4.7-5.7,5.3-.8-1.1-11.5-12.7-12.5-13.6.6-.5,5.2-4.6,5.7-5.2l1.7,1.8c-.2.1-.6.5-1.2,1,1.7,1.9,7.5,8.2,9.2,10,.6-.6,1.1-1,1.2-1.1l1.7,1.8ZM228.8,67.1c.5-.5,1.1-1,1.6-1.5-1.7-1.9-7.5-8.2-9.2-10-.6.5-1.1,1-1.6,1.5,2.3,2.5,6.8,7.5,9.2,10ZM223.4,50.9c.4-.3,1.9-1.6,2.7-2.4-1.3-1.3-2.7-2.6-3.6-3.6l1.2-1.3c1.2,1.4,7.1,7.4,9.7,9.6l-1.2,1.1c-1.2-1.1-2.8-2.6-4.5-4.2-.9.8-2.4,2.2-2.7,2.6l-1.6-1.7ZM228.4,40.8c1.9-1.8,4.7-.3,6.6,1.8,1.9,2.1,3.1,4.9,1.2,6.7-1.9,1.8-4.6.3-6.6-1.8s-3.2-5-1.3-6.7ZM241.5,48.4l1.6,1.7c-.9.7-10.1,9.2-10.9,10.1l-1.6-1.7c.1,0,.4-.3.7-.6-1.1-1.1-3.4-3.3-3.7-3.6l1.4-1.2c.2.4,2.6,2.7,3.6,3.8,3-2.7,8.4-7.7,9-8.4ZM230.1,42.6c-1.1,1,0,2.7.9,3.7,1,1.1,2.5,2.3,3.6,1.2,1.1-1,0-2.7-.9-3.7-1-1-2.5-2.3-3.6-1.2ZM233.9,62.5c1-.7,10.7-9.7,11.5-10.6l1.6,1.8c-1,.7-10.7,9.7-11.5,10.6l-1.6-1.8Z"/>
  <path class="st5" d="M252.8,84.3c-5.3,2.6-9.1,1.5-10.7-1.9-1.6-3.3-.2-7.1,5.1-9.7,5.1-2.5,9-1.4,10.7,1.9,1.6,3.3,0,7.1-5,9.6ZM256.2,96.1c-.3-.6-1.1-2.5-1.7-3.5-4.9,2.4-9.6,4.7-10.3,5.1l-1.2-2.4c1.5-.6,20.8-10,22.2-10.9l1.2,2.4c-.7.3-5.1,2.4-9.9,4.7.6,1.1,1.5,2.9,1.8,3.4l-2.2,1.1ZM251.7,82c3.4-1.6,5.1-3.9,4-6.2-1.2-2.4-4-2.4-7.3-.7-3.7,1.8-5.2,3.9-4,6.3,1.1,2.3,3.8,2.4,7.4.7Z"/>
  <g class="st2">
    <path class="st5" d="M267.7,97.4c.2,1.3,2.5,10.7,2.9,12.3-7.6,1.5-14.3.2-21.4-7.1l2.1-2.4c2.8,4.1,6.4,6.2,9.9,7.1-.7-2.5-2-7.2-2.5-8.8l2.3-.6c.5,2,1.9,7.8,2.5,9.8,1.5.2,3,.1,4.3-.1-.3-1.5-1.9-8.2-2.3-9.6l2.3-.5ZM262.8,123.1c-.1-.6-.6-2.7-.8-3.8-5.2,1.2-10.2,2.5-11,2.7l-.6-2.6c1.6-.3,22.5-5.2,24.1-5.7l.6,2.6c-.8.1-5.7,1.3-10.9,2.5.3,1.2.8,3.2,1,3.8l-2.4.6Z"/>
    <path class="st5" d="M276.7,147.6c-1.7-.1-23.1,0-24.7.2v-2.7c1.6.1,23,0,24.7-.2v2.7ZM274.3,132.6c0,3.7-3.1,6.4-8.8,6.5-5.9,0-8.9-2.6-8.9-6.4,0-3.8,3-6.5,8.9-6.5,5.7,0,8.8,2.6,8.8,6.4ZM259,132.7c0,2.6,2.4,3.9,6.5,3.8,3.7,0,6.3-1.3,6.3-3.9,0-2.7-2.6-3.9-6.4-3.9-4.1,0-6.4,1.2-6.4,4Z"/>
    <path class="st5" d="M256.9,152c-.6,2.3-4.8,22.2-5.2,24.5l-2.3-.5c.6-2.3,4.8-22.2,5.2-24.5l2.3.5ZM260.5,156.2c1.6.4,11.3,2.5,12.9,2.7l-.5,2.6c-.6-.1-2.2-.5-4.1-.9-.7,3.2-2,9.6-2.7,12.7,1.9.4,3.5.7,4.1.8l-.5,2.6c-1.6-.4-11.3-2.5-12.9-2.7.4-1.4,3.6-16.3,3.8-17.8ZM266.5,160.2c-1.6-.4-3.2-.7-4.4-.9-.7,3.3-2,9.5-2.7,12.7,1.2.3,2.8.6,4.4.9l2.7-12.7Z"/>
  </g>
  <path class="st5" d="M257,207.1c-.6,1-1.2,1.9-1.8,2.6-.6.8-1.4,1.3-2.1,1.7-.8.4-1.6.5-2.6.5-.9,0-1.9-.4-3-1.1-1.1-.7-1.9-1.4-2.4-2.1-.5-.8-.8-1.6-.8-2.5,0-.9,0-1.8.4-2.7s.8-1.9,1.4-2.9l1.2-2.1-6.9-4,1.4-2.4,18,10.5-2.6,4.4ZM255.9,203.8l-6.6-3.8-1.4,2.4c-.3.6-.6,1.2-.9,1.7-.2.6-.4,1.1-.3,1.6,0,.5.2,1,.5,1.5.3.5.8.9,1.6,1.3.7.4,1.4.7,1.9.7.6,0,1.1,0,1.5-.3.5-.2.9-.6,1.2-1.1.4-.5.7-1,1.1-1.6l1.4-2.4Z"/>
  <path class="st5" d="M245.7,224.4c-.8,1-1.7,1.7-2.8,2.2-1,.4-2.1.6-3.2.5s-2.3-.4-3.6-1c-1.2-.6-2.5-1.3-3.7-2.3-1.2-1-2.3-2-3.1-3.1-.8-1.1-1.4-2.2-1.8-3.3s-.4-2.2-.2-3.3c.2-1.1.7-2.2,1.5-3.2s1.7-1.7,2.8-2.2c1-.4,2.1-.6,3.3-.5,1.1,0,2.3.4,3.6,1s2.5,1.3,3.7,2.3c1.2,1,2.3,2,3.1,3.1.8,1.1,1.4,2.2,1.8,3.2.3,1.1.4,2.2.2,3.3-.2,1.1-.7,2.2-1.5,3.2ZM243.7,222.8c1.1-1.3,1.3-2.8.7-4.3-.6-1.5-2-3.1-4-4.7-2.1-1.6-3.9-2.6-5.5-2.9-1.6-.3-3,.3-4,1.6-1.1,1.3-1.3,2.8-.7,4.3.6,1.5,2,3.1,4,4.7,2,1.6,3.9,2.6,5.5,2.9,1.6.3,3-.3,4-1.6Z"/>
  <path class="st5" d="M227.6,228.7c.7-.2,1.3-.3,2-.3.7,0,1.3.2,2,.4.6.3,1.2.7,1.8,1.3.6.7,1,1.4,1.2,2.1.2.8.3,1.5.1,2.3-.1.8-.4,1.5-.8,2.3-.4.7-1,1.4-1.7,2.1-.6.5-1.2,1-2,1.4-.7.4-1.5.6-2.3.7-.8,0-1.6,0-2.4-.3-.8-.2-1.6-.7-2.4-1.4l2-1.8c.5.4,1,.7,1.5.8.5.1,1,.1,1.5,0,.5,0,.9-.3,1.4-.5s.8-.5,1.2-.8c.4-.3.7-.7.9-1.1.3-.4.4-.8.5-1.2,0-.4.1-.9,0-1.3,0-.4-.3-.9-.7-1.3-.6-.7-1.3-1-2.1-.9-.8,0-1.5.3-2.3.7l-1.8,1.1c-.7.4-1.5.8-2.3,1.1-.8.3-1.5.5-2.2.5s-1.5,0-2.2-.4c-.7-.3-1.4-.8-2.1-1.5-.7-.7-1.1-1.5-1.4-2.3-.3-.8-.3-1.6-.2-2.4.1-.8.4-1.6.8-2.4.4-.8,1-1.5,1.8-2.2.8-.7,1.6-1.3,2.5-1.6.9-.4,1.8-.6,2.7-.6.9,0,1.8.2,2.6.5.9.4,1.7.9,2.4,1.6l-2,1.8c-1.1-.9-2.2-1.4-3.3-1.3-1.2,0-2.2.5-3.2,1.4-.4.3-.7.7-1,1.2s-.5.9-.6,1.4c-.1.5,0,1,0,1.5.1.5.4.9.8,1.4.4.4.8.7,1.2.8.4.2.8.2,1.3.2.4,0,.9-.1,1.4-.3.5-.2,1-.4,1.5-.7l2-1.1c.6-.4,1.2-.6,1.9-.8Z"/>
  <path class="st5" d="M216,248.3l5.2-3.5,1.5,2.1-12.6,8.6-1.5-2.1,5.2-3.5-10.3-15,2.2-1.5,10.3,15Z"/>
  <path class="st5" d="M198.6,245.9l1.1,2.2-11.2,5.5-1.1-2.2,11.2-5.5Z"/>
  <path class="st5" d="M180.9,269.2c-1.2.4-2.4.5-3.5.3-1.1-.2-2.1-.7-3-1.4-.9-.7-1.7-1.6-2.4-2.8-.7-1.2-1.3-2.5-1.8-4-.5-1.5-.8-2.9-.8-4.3,0-1.4,0-2.6.3-3.7.3-1.1.9-2.1,1.6-2.9.8-.8,1.8-1.4,3-1.8,1.2-.4,2.4-.5,3.5-.3,1.1.2,2.1.7,3,1.4s1.7,1.7,2.4,2.8c.7,1.2,1.3,2.5,1.8,4,.5,1.5.8,2.9.8,4.3,0,1.4,0,2.6-.4,3.7-.3,1.1-.9,2-1.6,2.9-.8.8-1.8,1.4-3,1.8ZM180.1,266.8c1.6-.5,2.6-1.6,2.9-3.2.3-1.6,0-3.7-.7-6.2-.8-2.5-1.8-4.3-3-5.5-1.2-1.1-2.6-1.4-4.2-.9s-2.6,1.6-2.9,3.2c-.3,1.6,0,3.7.7,6.2.8,2.5,1.8,4.3,3,5.4,1.2,1.1,2.6,1.4,4.2.9Z"/>
  <path class="st5" d="M162.1,273.4c-1.1.2-2.2.3-3.2.2-1,0-1.9-.2-2.7-.6-.8-.4-1.5-.9-2-1.7s-.9-1.8-1.1-3c-.2-1.3-.2-2.4.1-3.2s.7-1.6,1.4-2.2c.6-.6,1.4-1,2.4-1.4.9-.3,2-.6,3.1-.8l2.4-.4-1.3-7.9,2.7-.4,3.3,20.5-5,.8ZM164,270.4l-1.2-7.5-2.7.4c-.7.1-1.3.2-1.9.4-.6.2-1.1.4-1.5.8s-.7.8-.8,1.3c-.2.5-.2,1.2,0,2.1.1.8.4,1.5.7,1.9.3.5.7.8,1.2,1,.5.2,1,.3,1.6.3.6,0,1.3,0,1.9-.2l2.7-.4Z"/>
  <g class="st4">
    <path class="st5" d="M142.9,272.6h6.3c0-.1,0,2.5,0,2.5l-15.2.3v-2.6s6.2-.1,6.2-.1l-.3-18.2h2.7c0,0,.3,18.2.3,18.2Z"/>
    <path class="st5" d="M128.3,275l-13.1-1.8.3-2.6,5.2.7,2.1-15.5-5.2-.7.3-2.6,13.1,1.8-.3,2.6-5.2-.7-2.1,15.5,5.2.7-.3,2.6Z"/>
  </g>
  <path class="st5" d="M107.4,257.4v11.4c-.1,0,4.9-17.4,4.9-17.4l2.6.8-5.8,20-4.1-1.2.2-11-5.7,9.4-4.1-1.2,5.8-20,2.6.8-5.1,17.4,6-9.7,2.6.8Z"/>
  <path class="st5" d="M84.7,240.9l2.7,1.2-.6,4.6,7.2,3.3,3.1-3.5,2.7,1.2-14.9,16-2.7-1.2,2.5-21.7ZM92.2,252.1l-5.8-2.6-1.4,10.5,7.1-7.9Z"/>
  <path class="st5" d="M78.5,240.1l-8.6-5.6,1.4-2.2,10.8,7-11.3,17.4-2.3-1.5,9.9-15.3Z"/>
  <path class="st5" d="M52.9,221.2l-12.9,10.9-1.9-1.9,16.1-13.3,2.5,2.5-5.9,9.4,9.3-6,2.5,2.5-13.1,16.2-1.9-1.9,10.8-13-9,5.9-2.1-2.1,5.7-9.1Z"/>
  <path class="st5" d="M34.2,225.7l-7.4-10,2.1-1.5,5.7,7.8,5-3.7-5.4-7.3,2.1-1.5,5.4,7.3,5.5-4.1-5.7-7.8,2.1-1.5,7.4,10-16.7,12.4Z"/>
  <path class="st5" d="M22.9,209.7l-2.9-5.4c-.4-.8-.7-1.5-1-2.3-.3-.8-.4-1.6-.3-2.3,0-.8.3-1.4.7-2.1.4-.6,1.1-1.2,2-1.7.9-.5,1.8-.7,2.6-.8.9,0,1.7,0,2.4.5,0-1,.2-1.9.6-2.7.5-.8,1.3-1.5,2.4-2.1,1-.5,1.9-.8,2.8-.8.9,0,1.7.1,2.4.4.7.3,1.4.8,2,1.4.6.6,1.1,1.4,1.6,2.2l3.2,6-18.3,9.8ZM29.4,203.1l-1.9-3.5c-.5-1-1.1-1.6-1.9-1.9-.7-.3-1.6-.2-2.7.4-.9.5-1.5,1.2-1.6,1.9,0,.8.1,1.6.6,2.6l1.9,3.5,5.5-3ZM37.7,198.7l-2-3.8c-1.2-2.3-2.9-2.9-5-1.8-1.1.6-1.7,1.3-1.8,2.1-.1.8.1,1.9.8,3.1l1.9,3.6,6.1-3.3Z"/>
  <path class="st5" d="M22.7,185.8c0,.7-.2,1.3-.5,2-.3.6-.7,1.2-1.2,1.7-.5.5-1.1.9-1.9,1.1-.8.3-1.7.4-2.5.3s-1.5-.4-2.2-.8-1.3-1-1.8-1.7c-.5-.7-.9-1.5-1.3-2.4-.3-.8-.4-1.5-.5-2.3,0-.8,0-1.6.3-2.4.2-.8.6-1.5,1.2-2.1.5-.7,1.3-1.2,2.2-1.7l.9,2.5c-.6.3-1,.6-1.3,1-.3.4-.5.9-.6,1.3-.1.5-.1,1,0,1.4,0,.5.2,1,.3,1.4.2.4.4.9.7,1.3.3.4.6.7.9,1,.4.3.8.4,1.2.5.4,0,.9,0,1.4-.1.9-.3,1.4-.8,1.7-1.5.3-.7.3-1.5.2-2.4l-.3-2.1c-.1-.9-.1-1.7-.1-2.5,0-.8.2-1.6.4-2.3s.6-1.3,1.2-1.9c.5-.6,1.3-1,2.2-1.3.9-.3,1.8-.5,2.6-.4.8,0,1.6.3,2.3.7s1.3,1,1.9,1.7c.6.7,1,1.5,1.3,2.5.4,1,.5,2,.5,2.9,0,1-.2,1.8-.5,2.7-.3.8-.8,1.6-1.5,2.2-.7.7-1.5,1.2-2.4,1.6l-.9-2.5c1.3-.6,2.1-1.5,2.5-2.6.4-1.1.4-2.3,0-3.5-.2-.5-.4-.9-.7-1.4-.3-.4-.6-.8-1-1.1-.4-.3-.9-.5-1.4-.5-.5,0-1,0-1.6.2-.5.2-.9.4-1.2.7-.3.3-.5.7-.7,1.1-.2.4-.2.9-.3,1.4s0,1.1,0,1.6l.3,2.3c0,.7.1,1.4,0,2.1Z"/>
  <g class="st3">
    <path class="st5" d="M24.4,147.1l.4,2.9-4.2,2,1.1,7.9,4.6.8.4,2.9-21.5-4-.4-2.9,19.7-9.5ZM19,159.4l-.8-6.3-9.6,4.5,10.5,1.8Z"/>
    <path class="st5" d="M15.7,137.9c0,.2,0,.5,0,.7,0,.2,0,.5,0,.8v2.4s8.7.2,8.7.2v2.7c0,0-20.8-.4-20.8-.4v-5.1c.1-1.1.2-2.2.4-3.2.2-1,.5-1.8.9-2.5s1.1-1.3,1.8-1.7c.8-.4,1.8-.6,3-.6,1.6,0,2.9.4,3.7,1.1.8.7,1.4,1.6,1.8,2.8l9.4-4.2v3.1c0,0-8.9,3.9-8.9,3.9ZM6.2,141.6h6.9c0,.1,0-2.5,0-2.5,0-.7,0-1.3,0-1.9,0-.6-.2-1.1-.4-1.6-.2-.5-.6-.8-1-1.1-.5-.3-1.1-.4-1.9-.4-.8,0-1.4,0-1.9.3-.5.2-.8.6-1,1-.2.4-.4,1-.4,1.6,0,.6-.1,1.2-.1,1.9v2.7Z"/>
  </g>
  <path class="st5" d="M20.6,113.4c2.2.7,3.7,1.8,4.6,3.2.9,1.4,1.3,3.1,1,5-.2,1.2-.6,2.3-1.3,3.1-.7.8-1.5,1.5-2.6,2-1,.5-2.2.7-3.6.8-1.3,0-2.8,0-4.4-.2-1.6-.3-3-.6-4.3-1.2-1.3-.5-2.3-1.2-3.1-2-.8-.8-1.4-1.7-1.8-2.7-.4-1-.4-2.2-.2-3.4.1-.9.4-1.7.9-2.4.5-.7,1-1.3,1.7-1.8.7-.5,1.5-.9,2.4-1.2.9-.3,1.9-.4,3-.4l-.4,2.7c-.6,0-1.2,0-1.7.2-.6.1-1.1.3-1.5.6-.5.3-.9.7-1.2,1.1-.3.5-.5,1-.6,1.6-.2,1.5.3,2.8,1.5,3.8,1.2,1,3.2,1.8,5.8,2.2,1.3.2,2.4.3,3.5.2,1,0,1.9-.2,2.7-.5.8-.3,1.4-.7,1.9-1.2.5-.5.8-1.2.9-2,.1-.6,0-1.2,0-1.8-.1-.5-.4-1-.7-1.4-.3-.4-.7-.8-1.2-1-.5-.3-1-.5-1.6-.7l.4-2.7Z"/>
  <path class="st5" d="M11.8,92.5l19.8,6.3-.8,2.6-9-2.9-2.4,7.7,9,2.9-.8,2.6-19.8-6.3.8-2.6,8.4,2.7,2.4-7.7-8.4-2.7.8-2.6Z"/>
  <path class="st5" d="M14.3,86.4l5.8-11.9,2.3,1.1-2.3,4.7,14,6.9,2.3-4.7,2.3,1.1-5.8,11.9-2.3-1.1,2.3-4.7-14-6.9-2.3,4.7-2.3-1.1Z"/>
  <path class="st5" d="M22.6,69.9l1.7-2.4,17,5.5-11.3-13.9,1.7-2.4,13.5,17.1-1.6,2.4-20.9-6.3Z"/>
  <path class="st5" d="M35.4,52.1l8.4-9.1,1.9,1.7-6.5,7.1,4.6,4.2,6.2-6.7,1.9,1.7-6.2,6.7,5,4.6,6.5-7.1,1.9,1.7-8.4,9.1-15.3-14.1Z"/>
</svg>